<?xml version="1.0" encoding="UTF-8"?>
<svg width="86px" height="86px" viewBox="0 0 86 86" version="1.1" xmlns="http://www.w3.org/2000/svg" xmlns:xlink="http://www.w3.org/1999/xlink" xmlns:sketch="http://www.bohemiancoding.com/sketch/ns">
    <!-- Generator: Sketch 3.5.1 (25234) - http://www.bohemiancoding.com/sketch -->
    <title>add-icon</title>
    <desc>Created with Sketch.</desc>
    <defs></defs>
    <g id="Page-1" stroke="none" stroke-width="1" fill="none" fill-rule="evenodd" sketch:type="MSPage">
        <g id="Artboard-1" sketch:type="MSArtboardGroup" transform="translate(-511.000000, -538.000000)" fill="#FFFFFF">
            <g id="add-icon" sketch:type="MSLayerGroup" transform="translate(511.000000, 538.000000)">
                <g id="Shape" sketch:type="MSShapeGroup">
                    <g id="Page-1">
                        <g id="add-icon">
                            <g id="Page-1">
                                <g id="add">
                                    <g id="Page-1">
                                        <g id="add">
                                            <g id="Shape">
                                                <path d="M43,0 C19.2904615,0 0,19.2888077 0,43 C0,66.7111924 19.2904615,86 43,86 C66.7095384,86 86,66.7111924 86,43 C86,19.2888077 66.7095384,0 43,0 L43,0 Z M43,82.6923076 C21.1146538,82.6923076 3.3076923,64.8853462 3.3076923,43 C3.3076923,21.1146538 21.1146538,3.3076923 43,3.3076923 C64.8853462,3.3076923 82.6923076,21.1146538 82.6923076,43 C82.6923076,64.8853462 64.8853462,82.6923076 43,82.6923076 L43,82.6923076 Z"></path>
                                                <path d="M63.673077,41.3461538 L44.6538462,41.3461538 L44.6538462,23.1538462 C44.6538462,22.2392692 43.912923,21.5 43,21.5 C42.087077,21.5 41.3461538,22.2392692 41.3461538,23.1538462 L41.3461538,41.3461538 L22.3269231,41.3461538 C21.414,41.3461538 20.6730769,42.085423 20.6730769,43 C20.6730769,43.914577 21.414,44.6538462 22.3269231,44.6538462 L41.3461538,44.6538462 L41.3461538,64.5 C41.3461538,65.414577 42.087077,66.1538462 43,66.1538462 C43.912923,66.1538462 44.6538462,65.414577 44.6538462,64.5 L44.6538462,44.6538462 L63.673077,44.6538462 C64.586,44.6538462 65.326923,43.914577 65.326923,43 C65.326923,42.085423 64.586,41.3461538 63.673077,41.3461538 L63.673077,41.3461538 Z"></path>
                                            </g>
                                        </g>
                                    </g>
                                </g>
                            </g>
                        </g>
                    </g>
                </g>
            </g>
        </g>
    </g>
</svg>