<?xml version="1.0" encoding="UTF-8"?>
<svg width="89px" height="89px" viewBox="0 0 89 89" version="1.1" xmlns="http://www.w3.org/2000/svg" xmlns:xlink="http://www.w3.org/1999/xlink" xmlns:sketch="http://www.bohemiancoding.com/sketch/ns">
    <!-- Generator: Sketch 3.5.1 (25234) - http://www.bohemiancoding.com/sketch -->
    <title>birthday-cake</title>
    <desc>Created with Sketch.</desc>
    <defs></defs>
    <g id="Page-1" stroke="none" stroke-width="1" fill="none" fill-rule="evenodd" sketch:type="MSPage">
        <g id="Artboard-1" sketch:type="MSArtboardGroup" transform="translate(-569.000000, -903.000000)" fill="#4DB7C3">
            <g id="birthday-cake" sketch:type="MSLayerGroup" transform="translate(569.000000, 903.000000)">
                <g id="Layer_1" sketch:type="MSShapeGroup">
                    <rect id="Rectangle-path" x="0" y="83.1957051" width="89" height="5.80429492"></rect>
                    <path d="M44.5,0 C40.5144687,1.74193164 37.7281777,7.03638867 37.7281777,10.6412363 C37.7281777,14.3811484 40.7599141,17.4130586 44.5,17.4130586 C48.2400859,17.4130586 51.2718223,14.3813223 51.2718223,10.6412363 C51.2718223,7.03638867 48.4855312,1.74193164 44.5,0 L44.5,0 Z" id="Shape"></path>
                    <path d="M71.5869414,34.8261172 L48.3695879,34.8261172 L48.3695879,23.2173535 L40.6304121,23.2173535 L40.6304121,34.8261172 L17.4130586,34.8261172 C12.0923535,34.8261172 7.73917578,39.1792949 7.73917578,44.5 L7.73917578,45.4673535 C11.8413457,45.4673535 14.0757324,47.3021094 15.7076309,48.6418027 C17.1172031,49.7991504 17.9680918,50.4977656 19.992668,50.4977656 C22.0170703,50.4977656 22.8677852,49.7991504 24.2773574,48.6418027 C25.9089082,47.3021094 28.1434687,45.4673535 32.2456387,45.4673535 C36.3478086,45.4673535 38.5821953,47.3021094 40.2139199,48.6418027 C41.623666,49.7991504 42.4745547,50.4977656 44.498957,50.4977656 C46.5233594,50.4977656 47.374248,49.7991504 48.7836465,48.6418027 C50.4151973,47.3021094 52.649584,45.4673535 56.7517539,45.4673535 C60.8540977,45.4673535 63.0890059,47.3021094 64.7207305,48.6418027 C66.1306504,49.7991504 66.9815391,50.4977656 69.0064629,50.4977656 C71.0313867,50.4977656 71.8822754,49.7991504 73.2921953,48.6418027 C74.9239199,47.3021094 77.1586543,45.4673535 81.2611719,45.4673535 L81.2611719,44.5 C81.2608242,39.1792949 76.9076465,34.8261172 71.5869414,34.8261172 L71.5869414,34.8261172 Z" id="Shape"></path>
                    <path d="M76.9750918,53.1277852 C75.3433672,54.4676523 73.1086328,56.3022344 69.0062891,56.3022344 C64.9037715,56.3022344 62.6690371,54.4674785 61.0373125,53.1277852 C59.6273926,51.9704375 58.7765039,51.2718223 56.7515801,51.2718223 C54.7271777,51.2718223 53.8764629,51.9704375 52.4668906,53.1277852 C50.8353398,54.4674785 48.6007793,56.3022344 44.4986094,56.3022344 C40.3964395,56.3022344 38.1620527,54.4674785 36.5301543,53.1277852 C35.1204082,51.9704375 34.2696934,51.2718223 32.2451172,51.2718223 C30.2207148,51.2718223 29.3698262,51.9704375 27.9604277,53.1277852 C26.3290508,54.4674785 24.0944902,56.3022344 19.9923203,56.3022344 C15.8901504,56.3022344 13.6557637,54.4674785 12.0238652,53.1277852 C10.614293,51.9704375 9.7634043,51.2718223 7.73882812,51.2718223 L7.73882812,77.3914102 L81.2606504,77.3914102 L81.2606504,51.2718223 C79.2359004,51.2718223 78.3850117,51.9704375 76.9750918,53.1277852 L76.9750918,53.1277852 Z" id="Shape"></path>
                </g>
            </g>
        </g>
    </g>
</svg>