<?xml version="1.0" encoding="UTF-8"?>
<svg width="107px" height="79px" viewBox="0 0 107 79" version="1.1" xmlns="http://www.w3.org/2000/svg" xmlns:xlink="http://www.w3.org/1999/xlink" xmlns:sketch="http://www.bohemiancoding.com/sketch/ns">
    <!-- Generator: Sketch 3.5.1 (25234) - http://www.bohemiancoding.com/sketch -->
    <title>card</title>
    <desc>Created with Sketch.</desc>
    <defs></defs>
    <g id="Page-1" stroke="none" stroke-width="1" fill="none" fill-rule="evenodd" sketch:type="MSPage">
        <g id="Artboard-1" sketch:type="MSArtboardGroup" transform="translate(-1141.000000, -860.000000)" fill="#FFFFFF">
            <g id="card" sketch:type="MSLayerGroup" transform="translate(1141.000000, 860.000000)">
                <g id="Page-1" sketch:type="MSShapeGroup">
                    <g>
                        <g id="card">
                            <path d="M84.7469389,65.4933972 C79.8778161,65.4933972 75.9306124,61.5375939 75.9306124,56.6578631 C75.9306124,51.7781322 79.8778161,47.8223289 84.7469389,47.8223289 C89.6160616,47.8223289 93.5632653,51.7781322 93.5632653,56.6578631 C93.5632653,61.5375939 89.6160616,65.4933972 84.7469389,65.4933972 L84.7469389,65.4933972 Z M84.7469389,51.7541416 C82.032403,51.7541416 79.8318368,53.9595021 79.8318368,56.679952 C79.8318368,59.4004019 82.032403,61.6057624 84.7469389,61.6057624 C87.4614747,61.6057624 89.6620409,59.4004019 89.6620409,56.679952 C89.6379513,53.9731581 87.4479292,51.7882071 84.7469389,51.7762306 L84.7469389,51.7541416 L84.7469389,51.7541416 Z" id="Shape"></path>
                            <path d="M75.9746938,65.4933972 C71.1055711,65.4933972 67.1583674,61.5375939 67.1583674,56.6578631 C67.1583674,51.7781322 71.1055711,47.8223289 75.9746938,47.8223289 C80.8438165,47.8223289 84.7910202,51.7781322 84.7910202,56.6578631 C84.7910202,61.5375939 80.8438165,65.4933972 75.9746938,65.4933972 L75.9746938,65.4933972 Z M75.9746938,51.7541416 C73.9867209,51.7541416 72.1944961,52.9542767 71.4337314,54.7949256 C70.6729672,56.6355751 71.0934826,58.7542541 72.4991918,60.1630259 C73.904901,61.5717976 76.0189743,61.9932292 77.8556223,61.2308075 C79.6922698,60.4683854 80.8897959,58.6722565 80.8897959,56.679952 C80.8657062,53.9731581 78.6756846,51.7882071 75.9746938,51.7762306 L75.9746938,51.7541416 L75.9746938,51.7541416 Z" id="Shape"></path>
                            <path d="M98.9191834,0 L8.00081632,0 C3.58208749,-2.71158582e-16 5.41138212e-16,3.5898916 0,8.01824729 L0,70.8609845 C0.012149134,75.2807115 3.59068067,78.8571595 8.00081632,78.8571431 L98.9191834,78.8571431 C103.329319,78.8571595 106.907851,75.2807115 106.92,70.8609845 L106.92,8.01824729 C106.92,3.5898916 103.337912,2.71158582e-16 98.9191834,0 L98.9191834,0 Z M4.62857143,7.99615845 L4.62857143,7.64273708 C4.81048632,5.91918485 6.27154371,4.61763774 8.00081632,4.63865546 L98.9191834,4.63865546 C100.623186,4.65164361 102.045982,5.94445544 102.225306,7.64273708 L102.225306,70.8609845 C102.213284,72.7102687 100.720366,74.2064395 98.8751021,74.2184875 L8.00081632,74.2184875 C6.14695054,74.2185271 4.64068819,72.7188494 4.62857143,70.8609845 L4.62857143,7.99615845 L4.62857143,7.99615845 Z" id="Shape"></path>
                            <rect id="Rectangle-path" x="2.75510204" y="16.920048" width="102.115102" height="5.65474188"></rect>
                        </g>
                    </g>
                </g>
            </g>
        </g>
    </g>
</svg>