<?xml version="1.0" encoding="UTF-8"?>
<svg width="65px" height="69px" viewBox="0 0 65 69" version="1.1" xmlns="http://www.w3.org/2000/svg" xmlns:xlink="http://www.w3.org/1999/xlink" xmlns:sketch="http://www.bohemiancoding.com/sketch/ns">
    <!-- Generator: Sketch 3.5.1 (25234) - http://www.bohemiancoding.com/sketch -->
    <title>debit_card_speed_icon</title>
    <desc>Created with Sketch.</desc>
    <defs></defs>
    <g id="Page-1" stroke="none" stroke-width="1" fill="none" fill-rule="evenodd" sketch:type="MSPage">
        <g id="Artboard-1" sketch:type="MSArtboardGroup" transform="translate(-1329.000000, -232.000000)" fill="#C6C6C6">
            <g id="debit_card_speed_icon" sketch:type="MSLayerGroup" transform="translate(1329.000000, 232.000000)">
                <g id="Asset-4" sketch:type="MSShapeGroup">
                    <g id="Page-1">
                        <g id="add_money_hidden_fp">
                            <g id="Asset-4">
                                <path d="M52.8687852,13.1011718 C64.1942028,22.4619518 67.5741436,38.2142883 61.0608488,51.2805813 C54.5475541,64.3468741 39.8192106,71.36052 25.3633218,68.2797645 C10.9074331,65.1990092 0.44863985,52.8176264 0.0140316028,38.2706366 C-0.420576644,23.7236467 9.28097932,10.7591632 23.5279832,6.84822983 L22.9328052,0 L37.1482146,6.66915952 L24.2904013,15.6226756 L23.8723011,10.8313346 C11.581731,14.5751021 3.43495582,26.0413522 4.08261467,38.6845021 C4.73027349,51.3276521 14.0075263,61.9298096 26.6183937,64.4386648 C39.2292611,66.9475199 51.9640672,60.7245275 57.5530658,49.3221225 C63.1420646,37.9197178 60.1627628,24.2400024 50.3159139,16.0921302 L52.8737038,13.1060116 L52.8687852,13.1011718 L52.8687852,13.1011718 Z" id="Shape"></path>
                                <path d="M46.6032993,10.5961314 L46.1741879,10.1918954 C45.9287917,9.95946844 45.6059939,9.83976429 45.2769916,9.85918519 C44.9479892,9.87860609 44.6398107,10.0355566 44.4204291,10.2954192 L25.8940176,32.2276888 C25.4828214,32.7095859 25.4669566,33.4368838 25.8567036,33.9382973 C25.9965668,34.5154892 26.4870271,34.9204685 27.0507523,34.9242388 L38.8046688,34.9242388 L22.5917268,54.0860128 C22.3718156,54.345375 22.2585572,54.6865442 22.2769324,55.034271 C22.2953075,55.3819978 22.4438065,55.7077155 22.6896761,55.9395829 L23.1187873,56.3438188 C23.3641835,56.5762459 23.6869813,56.69595 24.0159837,56.6765291 C24.344986,56.6571083 24.6531645,56.5001577 24.8725463,56.240295 L43.2170519,34.5495813 L43.2497015,34.5101435 L43.3989576,34.3326739 C43.741656,33.9254975 43.8103591,33.3367412 43.571535,32.8537616 C43.5006301,32.1934582 42.9735874,31.6936065 42.3448365,31.6903508 L30.4649851,31.6903508 L46.7012486,12.4644906 C46.925543,12.2044111 47.0415185,11.8599629 47.0230979,11.5085947 C47.0046773,11.1572264 46.8534069,10.8284288 46.6032993,10.5961314 L46.6032993,10.5961314 L46.6032993,10.5961314 Z" id="Shape"></path>
                            </g>
                        </g>
                    </g>
                </g>
            </g>
        </g>
    </g>
</svg>