<?xml version="1.0" encoding="UTF-8"?>
<svg width="90px" height="68px" viewBox="0 0 90 68" version="1.1" xmlns="http://www.w3.org/2000/svg" xmlns:xlink="http://www.w3.org/1999/xlink" xmlns:sketch="http://www.bohemiancoding.com/sketch/ns">
    <!-- Generator: Sketch 3.5.1 (25234) - http://www.bohemiancoding.com/sketch -->
    <title>mail</title>
    <desc>Created with Sketch.</desc>
    <defs></defs>
    <g id="Page-1" stroke="none" stroke-width="1" fill="none" fill-rule="evenodd" sketch:type="MSPage">
        <g id="Artboard-1" sketch:type="MSArtboardGroup" transform="translate(-1130.000000, -599.000000)" fill="#FFFFFF">
            <g id="mail" sketch:type="MSLayerGroup" transform="translate(1130.000000, 599.000000)">
                <g id="Capa_1" sketch:type="MSShapeGroup">
                    <path d="M89.8538889,56.6181041 C89.8538889,58.5997918 89.2998148,60.4369096 88.4122222,62.0532603 L60.0416667,30.1193425 L88.1046296,5.41876164 C89.1962963,7.16161096 89.8538889,9.20887671 89.8538889,11.4212055 L89.8538889,56.6181041 L89.8538889,56.6181041 Z M44.927037,35.9176 L83.9757407,1.54499726 C82.3733333,0.662487671 80.5688889,0.121282192 78.6224074,0.121282192 L11.2316667,0.121282192 C9.28277778,0.121282192 7.47777778,0.662487671 5.88185185,1.54499726 L44.927037,35.9176 L44.927037,35.9176 Z M55.8135185,33.8381041 L46.7748148,41.7995068 C46.2461111,42.2628384 45.5877778,42.4942247 44.927037,42.4942247 C44.2659259,42.4942247 43.6075926,42.2628384 43.0788889,41.7995068 L34.0381481,33.8377315 L5.3087037,66.1798356 C7.03074074,67.2667178 9.04888889,67.9178411 11.2314815,67.9178411 L78.6224074,67.9178411 C80.8046296,67.9178411 82.8237037,67.2667178 84.5451852,66.1798356 L55.8135185,33.8381041 L55.8135185,33.8381041 Z M1.74962963,5.41857534 C0.658148148,7.16142466 0,9.20869041 0,11.4212055 L0,56.6182904 C0,58.5999781 0.551481481,60.4370959 1.44240741,62.0534466 L29.8096296,30.1139397 L1.74962963,5.41857534 L1.74962963,5.41857534 Z" id="Shape"></path>
                </g>
            </g>
        </g>
    </g>
</svg>