<?xml version="1.0" encoding="UTF-8"?>
<svg width="90px" height="89px" viewBox="0 0 90 89" version="1.1" xmlns="http://www.w3.org/2000/svg" xmlns:xlink="http://www.w3.org/1999/xlink" xmlns:sketch="http://www.bohemiancoding.com/sketch/ns">
    <!-- Generator: Sketch 3.5.1 (25234) - http://www.bohemiancoding.com/sketch -->
    <title>exclamation</title>
    <desc>Created with Sketch.</desc>
    <defs></defs>
    <g id="Page-1" stroke="none" stroke-width="1" fill="none" fill-rule="evenodd" sketch:type="MSPage">
        <g id="Artboard-1" sketch:type="MSArtboardGroup" transform="translate(-719.000000, -538.000000)" fill="#FFFFFF">
            <g id="exclamation" sketch:type="MSLayerGroup" transform="translate(719.000000, 538.000000)">
                <g id="Shape" sketch:type="MSShapeGroup">
                    <g id="Page-1">
                        <g id="exclamation-icon">
                            <g id="Page-1">
                                <g id="exclamation-mark-inside-a-circle-2">
                                    <path d="M45.1739167,0 C20.7400337,0 0.937805556,19.8022282 0.937805556,44.2361111 C0.937805556,68.6699941 20.7400337,88.5794746 45.1739167,88.5794746 C69.6077996,88.5794746 89.4100278,68.6592978 89.4100278,44.3433635 C89.4100278,19.9094806 69.6077996,0 45.1739167,0 L45.1739167,0 L45.1739167,0 Z M45.1739167,84.2909696 C23.1737375,84.2909696 5.22631048,66.3435427 5.22631048,44.3433635 C5.22631048,22.3431843 23.1737375,4.27780859 45.1739167,4.27780859 C67.1740959,4.27780859 85.1215228,22.2252357 85.1215228,44.3433635 C85.1215228,66.4614913 67.1740959,84.2909696 45.1739167,84.2909696 L45.1739167,84.2909696 L45.1739167,84.2909696 Z M47.3717229,62.4087393 C47.3717229,63.6846377 46.3317221,64.7244944 45.055968,64.7244944 C43.7800694,64.7244944 42.7402129,63.6844931 42.7402129,62.4087393 C42.7402129,61.1328407 43.780214,60.0929842 45.055968,60.0929842 C46.3317221,60.0929842 47.3717229,61.1329853 47.3717229,62.4087393 L47.3717229,62.4087393 L47.3717229,62.4087393 Z M42.8581616,51.0548758 L42.8581616,25.0020892 C42.8581616,23.8441394 43.780214,22.922087 44.9381637,22.922087 C46.0961137,22.922087 47.0181661,23.8441394 47.0181661,25.0020892 L47.0181661,51.0548758 C47.0181661,52.2128256 46.0961137,53.134878 44.9381637,53.134878 C43.780214,53.2635232 42.8581616,52.2128256 42.8581616,51.0548758 L42.8581616,51.0548758 L42.8581616,51.0548758 Z" id="Shape"></path>
                                </g>
                            </g>
                        </g>
                    </g>
                </g>
            </g>
        </g>
    </g>
</svg>