<svg xmlns="http://www.w3.org/2000/svg" width="14" height="14" viewBox="0 0 14 14">
    <path fill="#4DB7C3" fill-rule="nonzero" d="M14 .423a.419.419 0 0 0-.127-.299.438.438 0 0 0-.306-.124H.433C.193 0 0 .19 0 .423v.148c0 .116.049.227.135.307.01.017.02.034.032.05L4.972 6.06v7.497a.422.422 0 0 0 .326.388.448.448 0 0 0 .54-.082l3.094-3.301a.415.415 0 0 0 .12-.288V5.997L13.816.901a.422.422 0 0 0 .088-.144.408.408 0 0 0 .043-.182L14 .423zm-5.803 5.05a.567.567 0 0 0-.123.318v4.234l-2.08 2.222v-6.42a.419.419 0 0 0-.132-.304L1.612.994h10.783L8.197 5.473z"/>
</svg>
