<?xml version="1.0" encoding="UTF-8"?>
<svg width="72px" height="72px" viewBox="0 0 72 72" version="1.1" xmlns="http://www.w3.org/2000/svg" xmlns:xlink="http://www.w3.org/1999/xlink" xmlns:sketch="http://www.bohemiancoding.com/sketch/ns">
    <!-- Generator: Sketch 3.5.1 (25234) - http://www.bohemiancoding.com/sketch -->
    <title>fingerprint</title>
    <desc>Created with Sketch.</desc>
    <defs></defs>
    <g id="Page-1" stroke="none" stroke-width="1" fill="none" fill-rule="evenodd" sketch:type="MSPage">
        <g id="Artboard-1" sketch:type="MSArtboardGroup" transform="translate(-1235.000000, -227.000000)" stroke-width="2" stroke="#A7A7A6">
            <g id="fingerprint" sketch:type="MSLayerGroup" transform="translate(1236.000000, 228.000000)">
                <g id="9642EE86-DB11-45EA-8559-742EF7EB6B10" sketch:type="MSShapeGroup">
                    <g id="Webapp">
                        <g id="Apple_pay_top_up">
                            <path d="M70,34.9969765 C70,17.7462977 57.5198418,3.41051667 41.0958701,0.52597641 M34.5351444,0 C20.9871972,0.176349744 9.29590487,8.05027192 3.63469705,19.4483342 M1.34729808,25.3467209 C0.469887564,28.4121492 0,31.6496887 0,34.9969765 C0,39.0572153 0.691371154,42.9559765 1.96280897,46.5819559 M63.4938204,29.0061567 C60.7317882,15.8026544 49.0239642,5.88607744 35,5.88607744 C31.1185494,5.88607744 27.4145227,6.64571833 24.02848,8.02444013 M18.1829756,11.2320968 C10.7440801,16.5057406 3.74760974,27.6948117 6.55831705,41.2206855 M6.28345128,54.7293833 C6.81383859,52.3636535 7.09369051,49.903245 7.09369051,47.3774736 C7.09369051,45.2251351 6.89047333,43.1202612 6.50217885,41.0809915 M57.6774333,29.9754529 C56.2784708,23.6291219 52.2834056,18.2570276 46.862681,15.0296121 M41.0761149,12.5781869 C39.1393926,12.0545474 37.1023217,11.7751792 35,11.7751792 C22.1749554,11.7751792 11.7782027,22.1719319 11.7782027,34.9969765 C11.7782027,34.9969765 11.6443591,36.0007999 12.3135753,40.2837831 M48.6999836,24.0374588 C45.4855244,20.068046 40.5725681,17.5304365 35.0669218,17.5304365 C25.3834583,17.5304365 17.5334609,25.3804349 17.5334609,35.0638974 C17.5334609,35.0638974 17.6673036,38.2761346 18.2026771,40.1499395 M46.5546703,33.0770435 C45.6386197,27.5224564 40.8140842,23.2856947 35,23.2856947 C33.6201771,23.2856947 32.2960876,23.5243212 31.0667494,23.9625571 M26.075604,27.4131272 C24.3375174,29.4564433 23.2887191,32.1042292 23.2887191,34.9969765 C23.2887191,34.9969765 23.4225618,38.2761355 24.0917779,40.1499404 M40.5750836,33.8018172 C40.0527095,31.2379038 37.7851178,29.3086392 35.0669218,29.3086392 C31.9622997,29.3086392 29.4455063,31.8254327 29.4455063,34.9300547 C29.4455063,34.9300547 29.4455063,36.0007999 29.7131935,37.3392322 M65.5003829,51.8766186 C65.5553877,50.6068446 65.5831741,49.3300123 65.5831741,48.0466897 C65.5831741,47.4585749 65.5773381,46.8718232 65.5657217,46.2864895 M65.193861,39.7622822 C64.8490608,36.1122381 64.2787483,32.5278423 63.4970054,29.0231783 M58.6579269,60.8470585 C59.3397027,56.6363978 59.6940723,52.3160059 59.6940723,47.9128462 C59.6940723,41.7511662 59.0001255,35.7515658 57.6861214,29.9879372 M51.4087503,65.6369718 C53.0576003,59.6981673 53.9388141,53.4399645 53.9388141,46.9759437 C53.9388141,41.1271601 53.2173627,35.44688 51.8585963,30.0192415 M44.1728485,68.6970029 C46.5975479,61.7720142 47.9158696,54.3271696 47.9158696,46.5744138 C47.9158696,41.9678529 47.4504306,37.4700012 46.5640135,33.1253201 M37.6324074,69.7360686 C39.66235,64.731704 41.0390391,59.3925877 41.6566769,53.8245158 M42.0267687,47.1097864 C42.0267687,42.5301962 41.5156521,38.0699837 40.547351,33.7830814 M31.4228062,69.7075104 C31.4228062,69.7075104 32.5019333,67.0155096 32.9694597,65.6347919 M34.6373847,59.7254664 C35.6192065,55.4103792 36.1376669,50.9191003 36.1376669,46.3067276 C36.1376669,42.4635409 35.7777108,38.7044269 35.0896727,35.0612599 M25.4355168,68.4127751 C28.6103488,61.5703281 30.3824096,53.9447067 30.3824096,45.9051977 C30.3824096,42.9799812 30.1478046,40.1095585 29.6963854,37.3117195 M19.9426383,66.3832086 C22.8871892,60.6279504 24.6271514,53.8929641 24.6271514,46.9759437 C24.6271514,44.6347605 24.4267827,42.3403759 24.0422592,40.1090029 M18.5692294,50.4150258 C18.6809538,49.194416 18.7380496,47.9580042 18.7380496,46.7082574 C18.7380496,44.4075414 18.5445481,42.1520203 18.1729324,39.9570805 M15.0614908,63.5163119 C16.0417465,61.3925182 16.8419776,59.1685644 17.4426171,56.8640181 M10.50434,59.6372718 C12.1020864,55.7316379 12.9827914,51.456641 12.9827914,46.9759437 C12.9827914,44.6665486 12.7488344,42.4117974 12.3033292,40.2340983" id="Touch-ID"></path>
                        </g>
                    </g>
                </g>
            </g>
        </g>
    </g>
</svg>