<?xml version="1.0" encoding="UTF-8"?>
<svg width="69px" height="107px" viewBox="0 0 69 107" version="1.1" xmlns="http://www.w3.org/2000/svg" xmlns:xlink="http://www.w3.org/1999/xlink" xmlns:sketch="http://www.bohemiancoding.com/sketch/ns">
    <!-- Generator: Sketch 3.5.1 (25234) - http://www.bohemiancoding.com/sketch -->
    <title>gender</title>
    <desc>Created with Sketch.</desc>
    <defs></defs>
    <g id="Page-1" stroke="none" stroke-width="1" fill="none" fill-rule="evenodd" sketch:type="MSPage">
        <g id="Artboard-1" sketch:type="MSArtboardGroup" transform="translate(-710.000000, -886.000000)" fill="#4DB7C3">
            <g id="gender" sketch:type="MSLayerGroup" transform="translate(710.000000, 886.000000)">
                <g id="Capa_1" sketch:type="MSShapeGroup">
                    <path d="M64.5866667,0 L36.5835556,0 C34.2035556,0 32.2746667,1.94086957 32.2746667,4.33565217 C32.2746667,6.72886957 34.2051111,8.67130435 36.582,8.66973913 L54.1846667,8.66973913 L37.6506667,25.3064348 C28.3173333,18.8123478 15.3891111,19.7358261 7.08555556,28.0909565 C-2.25866667,37.4932174 -2.25866667,52.790087 7.08555556,62.1923478 C10.6617778,65.7907826 15.0982222,67.9993043 19.7337778,68.8445217 L19.7337778,86.1886957 L10.0691111,86.1886957 C7.69066667,86.1886957 5.76022222,88.1295652 5.76022222,90.5243478 C5.76022222,92.9175652 7.68911111,94.86 10.0691111,94.86 L19.7337778,94.86 L19.7337778,102.634435 C19.7337778,105.027652 21.6626667,106.970087 24.0426667,106.970087 C26.4226667,106.970087 28.3515556,105.029217 28.3515556,102.634435 L28.3515556,94.86 L38.0162222,94.86 C40.3946667,94.86 42.3251111,92.9191304 42.3251111,90.5243478 C42.3251111,88.1311304 40.3962222,86.1886957 38.0162222,86.1886957 L28.3515556,86.1886957 L28.3515556,68.8398261 C32.9793333,67.9930435 37.4064444,65.7845217 40.978,62.1923478 C49.2815556,53.8372174 50.1993333,40.8302609 43.7453333,31.4373913 L60.2777778,14.8006957 L60.2777778,32.5126957 C60.2777778,33.7085217 60.76,34.7932174 61.5393333,35.5773913 C62.3186667,36.3615652 63.3966667,36.8467826 64.5851111,36.8467826 C66.9651111,36.8467826 68.894,34.905913 68.894,32.5111304 L68.894,4.33408696 C68.8955556,1.94243478 66.9651111,0 64.5866667,0 L64.5866667,0 Z M34.8848889,56.0613913 C28.9006667,62.0827826 19.1644444,62.0827826 13.1802222,56.0613913 C7.196,50.04 7.196,40.2433043 13.1802222,34.221913 C19.1644444,28.2005217 28.9006667,28.2005217 34.8848889,34.221913 C40.8691111,40.2433043 40.8691111,50.04 34.8848889,56.0613913 L34.8848889,56.0613913 Z" id="Shape"></path>
                </g>
            </g>
        </g>
    </g>
</svg>