<?xml version="1.0" encoding="UTF-8"?>
<svg width="81px" height="73px" viewBox="0 0 81 73" version="1.1" xmlns="http://www.w3.org/2000/svg" xmlns:xlink="http://www.w3.org/1999/xlink" xmlns:sketch="http://www.bohemiancoding.com/sketch/ns">
    <!-- Generator: Sketch 3.5.1 (25234) - http://www.bohemiancoding.com/sketch -->
    <title>goals-transfer-icon</title>
    <desc>Created with Sketch.</desc>
    <defs></defs>
    <g id="Page-1" stroke="none" stroke-width="1" fill="none" fill-rule="evenodd" sketch:type="MSPage">
        <g id="Artboard-1" sketch:type="MSArtboardGroup" transform="translate(-168.000000, -634.000000)" fill="#F6CB47">
            <g id="goals-transfer-icon" sketch:type="MSLayerGroup" transform="translate(168.000000, 634.000000)">
                <g id="goals" sketch:type="MSShapeGroup">
                    <g id="Page-1">
                        <g id="goals">
                            <g id="Shape">
                                <path d="M77.5135135,66.1515152 L3.26216216,66.1515152 C1.69189189,66.1515152 0.345945946,67.4969697 0.345945946,69.0666667 L0.345945946,69.7393939 C0.345945946,71.3090909 1.69189189,72.6545455 3.26216216,72.6545455 L77.5135135,72.6545455 C79.0837838,72.6545455 80.4297297,71.3090909 80.4297297,69.7393939 L80.4297297,69.0666667 C80.4297297,67.4969697 79.0837838,66.1515152 77.5135135,66.1515152 L77.5135135,66.1515152 Z"></path>
                                <path d="M28.8351351,18.3878788 C23.9,18.3878788 19.8621622,14.3515152 19.8621622,9.41818182 C19.8621622,4.48484848 23.9,0.448484848 28.8351351,0.448484848 C33.7702703,0.448484848 37.8081081,4.48484848 37.8081081,9.41818182 C37.8081081,14.3515152 33.7702703,18.3878788 28.8351351,18.3878788 L28.8351351,18.3878788 Z M28.8351351,4.26060606 C26.1432432,4.26060606 23.9,6.5030303 23.9,9.19393939 C23.9,11.8848485 26.1432432,14.1272727 28.8351351,14.1272727 C31.527027,14.1272727 33.7702703,11.8848485 33.7702703,9.19393939 C33.7702703,6.5030303 31.527027,4.26060606 28.8351351,4.26060606 L28.8351351,4.26060606 Z"></path>
                                <path d="M54.8567568,43.7272727 C49.9216216,43.7272727 45.8837838,39.6909091 45.8837838,34.7575758 C45.8837838,29.8242424 49.9216216,25.7878788 54.8567568,25.7878788 C59.7918919,25.7878788 63.8297297,29.8242424 63.8297297,34.7575758 C63.8297297,39.6909091 59.7918919,43.7272727 54.8567568,43.7272727 L54.8567568,43.7272727 Z M54.8567568,29.8242424 C52.1648649,29.8242424 49.9216216,32.0666667 49.9216216,34.7575758 C49.9216216,37.4484848 52.1648649,39.6909091 54.8567568,39.6909091 C57.5486486,39.6909091 59.7918919,37.4484848 59.7918919,34.7575758 C59.7918919,32.0666667 57.5486486,29.8242424 54.8567568,29.8242424 L54.8567568,29.8242424 Z"></path>
                                <path d="M30.8540541,70.8606061 C25.9189189,70.8606061 21.8810811,66.8242424 21.8810811,61.8909091 C21.8810811,56.9575758 25.9189189,52.9212121 30.8540541,52.9212121 C35.7891892,52.9212121 39.827027,56.9575758 39.827027,61.8909091 C39.827027,66.8242424 35.7891892,70.8606061 30.8540541,70.8606061 L30.8540541,70.8606061 Z M30.8540541,56.9575758 C28.1621622,56.9575758 25.9189189,59.2 25.9189189,61.8909091 C25.9189189,64.5818182 28.1621622,66.8242424 30.8540541,66.8242424 C33.5459459,66.8242424 35.7891892,64.5818182 35.7891892,61.8909091 C35.7891892,59.2 33.7702703,56.9575758 30.8540541,56.9575758 L30.8540541,56.9575758 Z"></path>
                            </g>
                        </g>
                    </g>
                </g>
            </g>
        </g>
    </g>
</svg>