<?xml version="1.0" encoding="UTF-8"?>
<svg width="86px" height="91px" viewBox="0 0 86 91" version="1.1" xmlns="http://www.w3.org/2000/svg" xmlns:xlink="http://www.w3.org/1999/xlink" xmlns:sketch="http://www.bohemiancoding.com/sketch/ns">
    <!-- Generator: Sketch 3.5.1 (25234) - http://www.bohemiancoding.com/sketch -->
    <title>key-tool</title>
    <desc>Created with Sketch.</desc>
    <defs></defs>
    <g id="Page-1" stroke="none" stroke-width="1" fill="none" fill-rule="evenodd" sketch:type="MSPage">
        <g id="Artboard-1" sketch:type="MSArtboardGroup" transform="translate(-446.000000, -904.000000)" fill="#4DB7C3">
            <g id="key-tool" sketch:type="MSLayerGroup" transform="translate(446.000000, 904.000000)">
                <g id="Capa_1" sketch:type="MSShapeGroup">
                    <path d="M38.6732131,68.5496586 L32.194815,62.1032907 L54.4885527,39.9143238 C62.5884637,44.2590727 72.8595222,43.1197687 79.7062904,36.3170176 C88.0456721,28.0063524 88.0456721,14.5317379 79.7062904,6.23269824 C71.3564356,-2.07756608 57.8159672,-2.07756608 49.4655082,6.23269824 C42.6304215,13.0358502 41.491274,23.2699427 45.8541124,31.3192335 L1.96390164,75.0080529 C-0.413283372,77.3710463 -0.413283372,81.241152 1.96390164,83.6031432 C4.33746136,85.9661366 8.22699766,85.9661366 10.600356,83.6031432 L17.0777471,90.0503128 C18.2714754,91.237522 20.2037564,91.237522 21.3964778,90.0503128 L25.7152084,85.7528678 C26.9103466,84.565859 26.9103466,82.6424317 25.7152084,81.4554229 L19.2374145,75.0082533 L23.555541,70.6975793 L30.0361546,77.1569758 C31.2290773,78.344185 33.1621639,78.344185 34.3548852,77.1569758 L38.6732131,72.8595308 C39.8659344,71.6598943 39.8659344,69.749696 38.6732131,68.5496586 L38.6732131,68.5496586 Z M58.1029696,14.8285903 C61.6815363,11.267163 67.4922763,11.267163 71.0708431,14.8285903 C74.6361171,18.3781916 74.6361171,24.1715242 71.0708431,27.7217269 C67.4922763,31.2713282 61.6815363,31.2713282 58.1029696,27.7217269 C54.5356815,24.1717247 54.5356815,18.3783921 58.1029696,14.8285903 L58.1029696,14.8285903 Z" id="Shape"></path>
                </g>
            </g>
        </g>
    </g>
</svg>