<?xml version="1.0" encoding="UTF-8"?>
<svg width="95px" height="95px" viewBox="0 0 95 95" version="1.1" xmlns="http://www.w3.org/2000/svg" xmlns:xlink="http://www.w3.org/1999/xlink" xmlns:sketch="http://www.bohemiancoding.com/sketch/ns">
    <!-- Generator: Sketch 3.5.1 (25234) - http://www.bohemiancoding.com/sketch -->
    <title>phone-receiver</title>
    <desc>Created with Sketch.</desc>
    <defs></defs>
    <g id="Page-1" stroke="none" stroke-width="1" fill="none" fill-rule="evenodd" sketch:type="MSPage">
        <g id="Artboard-1" sketch:type="MSArtboardGroup" transform="translate(-241.000000, -900.000000)" fill="#4DB7C3">
            <g id="phone-receiver" sketch:type="MSLayerGroup" transform="translate(241.000000, 900.000000)">
                <g id="Capa_1" sketch:type="MSShapeGroup">
                    <path d="M94.8080311,74.9691349 C95.0090242,76.5116522 94.5397668,77.8528287 93.402228,78.9926644 L80.0470984,92.2698183 C79.4446114,92.9404066 78.6581952,93.5108997 77.6875216,93.9798183 C76.716848,94.4493945 75.7630743,94.7511592 74.8262003,94.8851125 C74.7592573,94.8851125 74.5579361,94.9023702 74.223057,94.9358997 C73.8888342,94.9692647 73.4537047,94.9863581 72.9181606,94.9863581 C71.6459154,94.9863581 69.5872539,94.768417 66.7421762,94.3323702 C63.8970984,93.8963235 60.4162263,92.823218 56.2995596,91.1135467 C52.1819085,89.4035467 47.5127979,86.838218 42.2914076,83.4185467 C37.0700173,79.9990398 31.5135838,75.3045934 25.6225993,69.3361938 C20.9365889,64.7091349 17.0538946,60.2832526 13.9745164,56.0587111 C10.8951382,51.8338408 8.41824698,47.9276644 6.54384283,44.3400173 C4.66927461,40.7523702 3.2634715,37.5000173 2.32626943,34.5829585 C1.38906736,31.6658997 0.753108808,29.1511938 0.418393782,27.0388408 C0.0836787565,24.9264879 -0.0502072539,23.266782 0.0167357513,22.0597232 C0.0836787565,20.8526644 0.117150259,20.1820761 0.117150259,20.0479585 C0.251036269,19.1091349 0.552279793,18.1535467 1.02088083,17.1811938 C1.48948187,16.2088408 2.05849741,15.4208997 2.72792746,14.8173702 L16.083057,1.43913495 C17.0202591,0.500311419 18.0913472,0.030899654 19.2963212,0.030899654 C20.1665803,0.030899654 20.9364249,0.282370242 21.6058549,0.785311419 C22.275285,1.2882526 22.8443005,1.90854671 23.3129016,2.64619377 L34.0572539,23.0656055 C34.6597409,24.1385467 34.8270984,25.3120761 34.5593264,26.5861938 C34.2915544,27.8603114 33.7225389,28.9332526 32.8522798,29.8050173 L27.9319689,34.7338408 C27.7980829,34.8679585 27.6809326,35.0858997 27.5805181,35.3876644 C27.4801036,35.6894291 27.4298964,35.9408997 27.4298964,36.1420761 C27.6976684,37.5503114 28.3001554,39.1597232 29.2373575,40.9703114 C30.0406736,42.5797232 31.2791192,44.5411938 32.9526943,46.8547232 C34.6262694,49.1682526 37.0027461,51.8336765 40.0821244,54.8513235 C43.0945596,57.9363581 45.7722798,60.3333824 48.115285,62.0437111 C50.4577979,63.7530536 52.4165371,65.0108997 53.9896978,65.8156055 C55.5628584,66.6203114 56.7678325,67.1064879 57.604456,67.2736419 L58.8593092,67.5252768 C58.9931952,67.5252768 59.2112522,67.4748183 59.5121675,67.3743945 C59.8134111,67.2736419 60.0309758,67.1564533 60.1650259,67.0221713 L65.8884888,61.1880536 C67.0941192,60.1152768 68.499266,59.5788062 70.1060622,59.5788062 C71.2444214,59.5788062 72.1476598,59.7798183 72.8170898,60.1823356 L72.9173402,60.1823356 L92.2971762,71.6493945 C93.7034715,72.5218166 94.540095,73.6279585 94.8080311,74.9691349 L94.8080311,74.9691349 Z" id="Shape"></path>
                </g>
            </g>
        </g>
    </g>
</svg>