<?xml version="1.0" encoding="UTF-8"?>
<svg width="64px" height="81px" viewBox="0 0 64 81" version="1.1" xmlns="http://www.w3.org/2000/svg" xmlns:xlink="http://www.w3.org/1999/xlink" xmlns:sketch="http://www.bohemiancoding.com/sketch/ns">
    <!-- Generator: Sketch 3.5.1 (25234) - http://www.bohemiancoding.com/sketch -->
    <title>portrait</title>
    <desc>Created with Sketch.</desc>
    <defs></defs>
    <g id="Page-1" stroke="none" stroke-width="1" fill="none" fill-rule="evenodd" sketch:type="MSPage">
        <g id="Artboard-1" sketch:type="MSArtboardGroup" transform="translate(-311.000000, -135.000000)" fill="#FFFFFF">
            <g id="portrait" sketch:type="MSLayerGroup" transform="translate(311.000000, 135.000000)">
                <g id="Android-app" sketch:type="MSShapeGroup">
                    <g>
                        <g id="Id_scan_info">
                            <g id="avatar">
                                <g id="frame_and_image">
                                    <g id="portrait">
                                        <path d="M31.7006614,43.2848868 L31.9496603,43.2848868 L32.0430349,43.2848868 L32.1986591,43.2848868 C36.7584499,43.2017106 40.4467448,41.4882813 43.1701693,38.2111395 C49.1617033,30.9914466 48.165708,18.6148304 48.0567711,17.4337284 C47.6677104,8.56714709 43.7459791,4.32516163 40.5089945,2.34556842 C38.0968185,0.865032327 35.2800195,0.0665409483 32.1364093,0 L32.0274724,0 L31.9652228,0 L31.8718482,0 C30.1444189,0 26.7518101,0.299434267 23.499263,2.27902748 C20.2311536,4.25862069 16.2471727,8.50060614 15.858112,17.4337284 C15.749175,18.6148304 14.7531797,30.9914466 20.7447137,38.2111395 C23.4525758,41.4882813 27.1408706,43.2017106 31.7006614,43.2848868 L31.7006614,43.2848868 Z M20.0132796,17.8496094 C20.0132796,17.7997037 20.0288421,17.7497979 20.0288421,17.7165275 C20.5424021,5.7890625 28.4636769,4.50814925 31.8562858,4.50814925 L31.9185354,4.50814925 L32.0430349,4.50814925 C36.2448897,4.60796067 43.3880433,6.43783674 43.8704784,17.7165275 C43.8704784,17.7664332 43.8704784,17.816339 43.8860409,17.8496094 C43.9016033,17.9660561 44.9909732,29.2780173 40.0421217,35.2334321 C38.0812561,37.5956358 35.4667685,38.7601023 32.0274724,38.7933729 L31.9496603,38.7933729 L31.9496603,38.7933729 L31.8718482,38.7933729 C28.4481145,38.7601023 25.8180645,37.5956358 23.8727613,35.2334321 C18.9394722,29.3112878 19.9977172,17.9494208 20.0132796,17.8496094 L20.0132796,17.8496094 Z" id="Shape"></path>
                                        <path d="M63.9304454,63.8127695 L63.9304454,63.7628637 C63.9304454,63.6297818 63.914883,63.4966999 63.914883,63.3469827 C63.8215084,60.0532058 63.6191968,52.3510911 56.8651041,49.889076 C56.8184167,49.8724407 56.7561672,49.8558056 56.7094798,49.8391702 C49.6908257,47.926118 43.8549161,43.6009563 43.7926663,43.5510507 C42.8433584,42.8357355 41.5361147,43.085264 40.8669303,44.1000135 C40.1977459,45.1147629 40.4311824,46.5121229 41.3804903,47.2274381 C41.6450517,47.4270609 47.8388971,52.0350216 55.5889851,54.1643319 C59.2150304,55.5450566 59.6196534,59.6872307 59.7285904,63.4800647 C59.7285904,63.6297818 59.7285904,63.7628637 59.7441529,63.8959457 C59.7597153,65.393117 59.6663408,67.7054148 59.417342,69.0362339 C56.896229,70.5666756 47.0140885,75.8566811 31.9807851,75.8566811 C17.0097315,75.8566811 7.06534134,70.5500405 4.52866593,69.0195986 C4.27966712,67.6887797 4.17073012,65.3764817 4.20185498,63.8793104 C4.20185498,63.7462284 4.2174174,63.6131466 4.2174174,63.4634294 C4.32635439,59.6705953 4.73097746,55.5284214 8.35702268,54.1476966 C16.1071108,52.0183863 22.3009563,47.3937904 22.5655175,47.2108027 C23.5148255,46.4954875 23.7482618,45.0981278 23.0790776,44.0833782 C22.4098932,43.0686288 21.1026495,42.8191002 20.1533415,43.5344154 C20.0910917,43.5843212 14.2863069,47.9094828 7.23652803,49.822535 C7.17427832,49.8391702 7.12759104,49.8558056 7.08090376,49.8724407 C0.326810942,52.3510911 0.124499407,60.0532058 0.0311248517,63.3303475 C0.0311248517,63.4800647 0.0311248517,63.6131466 0.0155624259,63.7462284 L0.0155624259,63.7961342 C1.19267443e-13,64.6611664 -0.0155624259,69.1027748 0.809246144,71.3318966 C0.964870403,71.7644127 1.24499407,72.1303879 1.61849229,72.3799166 C2.08536507,72.7126212 13.2747493,80.3315598 31.9963475,80.3315598 C50.7179459,80.3315598 61.9073301,72.6959861 62.3742029,72.3799166 C62.7321387,72.1303879 63.0278247,71.7644127 63.1834489,71.3318966 C63.9615703,69.11941 63.9460078,64.6778018 63.9304454,63.8127695 L63.9304454,63.8127695 Z" id="Shape"></path>
                                    </g>
                                </g>
                            </g>
                        </g>
                    </g>
                </g>
            </g>
        </g>
    </g>
</svg>