<?xml version="1.0" encoding="UTF-8"?>
<svg width="81px" height="81px" viewBox="0 0 81 81" version="1.1" xmlns="http://www.w3.org/2000/svg" xmlns:xlink="http://www.w3.org/1999/xlink" xmlns:sketch="http://www.bohemiancoding.com/sketch/ns">
    <!-- Generator: Sketch 3.5.1 (25234) - http://www.bohemiancoding.com/sketch -->
    <title>profile</title>
    <desc>Created with Sketch.</desc>
    <defs></defs>
    <g id="Page-1" stroke="none" stroke-width="1" fill="none" fill-rule="evenodd" sketch:type="MSPage">
        <g id="Artboard-1" sketch:type="MSArtboardGroup" transform="translate(-210.000000, -139.000000)" fill="#FFFFFF">
            <g id="profile" sketch:type="MSLayerGroup" transform="translate(210.000000, 139.000000)">
                <g id="Page-1" sketch:type="MSShapeGroup">
                    <g>
                        <g id="profile">
                            <path d="M81,40.5 C81,18.1690364 62.8309636,0 40.5,0 C18.1690364,0 0,18.1690364 0,40.5 C0,52.2950728 5.07207272,62.9266908 13.1455636,70.3345092 L13.1072727,70.368382 L14.4209454,71.4758728 C14.5063636,71.5480364 14.5991454,71.6069456 14.6845636,71.6776364 C15.3826364,72.256418 16.1057454,72.8057456 16.8421091,73.3374 C17.0806909,73.5097092 17.3192727,73.682018 17.5622727,73.8499092 C18.3487091,74.3918728 19.1557636,74.9058544 19.9804909,75.3933272 C20.1601636,75.4993636 20.3413091,75.6024544 20.5224546,75.7055456 C21.4252364,76.2195272 22.3471636,76.7040544 23.2911818,77.148818 C23.3604,77.181218 23.4310909,77.2106728 23.5003091,77.2430728 C26.5768364,78.6730908 29.8610182,79.7231456 33.2954182,80.3431636 C33.3852546,80.3593636 33.4750909,80.3755636 33.5664,80.3917636 C34.6326546,80.5758544 35.7106908,80.7231272 36.801982,80.8218 C36.9345272,80.833582 37.0670728,80.8409456 37.2010908,80.8527272 C38.2879636,80.9425636 39.386618,81 40.5,81 C41.6030728,81 42.691418,80.9425636 43.7724,80.8556728 C43.9093636,80.8438908 44.0463272,80.8365272 44.1832908,80.8247456 C45.2657456,80.7260728 46.3349456,80.583218 47.3908908,80.4020728 C47.4822,80.3858728 47.574982,80.3696728 47.6662908,80.352 C51.0491456,79.7452364 54.2862,78.7187456 57.3229636,77.3255456 C57.4348908,77.274 57.5482908,77.2254 57.660218,77.172382 C58.5688908,76.7452908 59.4569456,76.2843272 60.3273272,75.7939092 C60.543818,75.6716728 60.7588364,75.5479636 60.9738544,75.4213092 C61.766182,74.9544544 62.5452544,74.466982 63.3022364,73.948582 C63.5746908,73.763018 63.8412544,73.5671456 64.1107636,73.3727456 C64.7572908,72.9073636 65.3920364,72.4272544 66.0091092,71.9250544 C66.1460728,71.8146 66.2933456,71.7188728 66.4273636,71.6054728 L67.7749092,70.4803092 L67.7351456,70.4464364 C75.8793272,63.0356728 81,52.3554544 81,40.5 L81,40.5 Z M2.94545454,40.5 C2.94545454,19.7919818 19.7919818,2.94545454 40.5,2.94545454 C61.208018,2.94545454 78.0545456,19.7919818 78.0545456,40.5 C78.0545456,51.6588544 73.1577272,61.6910728 65.4052908,68.5746 C64.9723092,68.2756364 64.536382,68.0076 64.0901456,67.7837456 L51.6205636,61.5496908 C50.5012908,60.9900544 49.8061636,59.8648908 49.8061636,58.6145456 L49.8061636,54.2596908 C50.094818,53.9032908 50.3996728,53.4997636 50.7148364,53.0564728 C52.3289456,50.7766908 53.6234728,48.2406544 54.5674908,45.5116908 C56.4334364,44.6251092 57.6381272,42.7665272 57.6381272,40.6678908 L57.6381272,35.4470728 C57.6381272,34.1702182 57.1698,32.9316546 56.331818,31.9581818 L56.331818,25.0849636 C56.4084,24.3206182 56.679382,20.007 53.5586728,16.4488909 C50.8444364,13.3502727 46.4512908,11.7818182 40.5,11.7818182 C34.5487091,11.7818182 30.1555636,13.3502727 27.4413273,16.4474182 C24.3206182,20.0055273 24.5916,24.3191454 24.6681818,25.0834909 L24.6681818,31.9567091 C23.8316727,32.9301818 23.3618727,34.1687454 23.3618727,35.4456 L23.3618727,40.666418 C23.3618727,42.2878908 24.0894,43.800382 25.3353273,44.820982 C26.5282364,49.4939456 28.9832727,53.0314364 29.8904727,54.2302364 L29.8904727,58.4923092 C29.8904727,59.6940544 29.2351091,60.7986 28.1791636,61.3759092 L16.5343091,67.727782 C16.1631818,67.9295456 15.795,68.165182 15.4268182,68.4288 C7.77010908,61.548218 2.94545454,51.5778544 2.94545454,40.5 L2.94545454,40.5 Z M62.5305272,70.8853092 C62.0150728,71.259382 61.490782,71.6216728 60.9591272,71.9677636 C60.7146544,72.126818 60.4716544,72.2858728 60.2227636,72.4405092 C59.5276364,72.8705456 58.8207272,73.2799636 58.0990908,73.6628728 C57.9400364,73.746818 57.7795092,73.8263456 57.618982,73.908818 C55.9606908,74.758582 54.2449636,75.4890544 52.4821092,76.0825636 C52.4202544,76.103182 52.3584,76.1252728 52.2950728,76.1458908 C51.3716728,76.452218 50.4364908,76.7246728 49.491,76.9588364 C49.4880544,76.9588364 49.4851092,76.9603092 49.4821636,76.9603092 C48.5278364,77.1959456 47.5617272,77.391818 46.5897272,77.5523456 C46.563218,77.5567636 46.5367092,77.5626544 46.5102,77.5670728 C45.5956364,77.715818 44.6737092,77.8233272 43.7488364,77.9043272 C43.5853636,77.9190544 43.4218908,77.9293636 43.2569456,77.9411456 C42.342382,78.0103636 41.4234,78.0545456 40.5,78.0545456 C39.5662908,78.0545456 38.6355272,78.0088908 37.709182,77.9396728 C37.5486544,77.9278908 37.3881272,77.917582 37.2290728,77.9028544 C36.2953636,77.820382 35.3660728,77.7099272 34.4456182,77.5597092 C34.4043818,77.5523456 34.3631454,77.544982 34.3219091,77.537618 C32.3749636,77.2121456 30.4589454,76.7335092 28.593,76.1076 C28.5355636,76.0884544 28.4766546,76.0678364 28.4192182,76.0486908 C27.4928727,75.7335272 26.5768364,75.3844908 25.677,74.9986364 C25.6711091,74.9956908 25.6637454,74.9927456 25.6578546,74.9898 C24.8066182,74.6230908 23.9715818,74.216618 23.1468546,73.7880544 C23.0393454,73.7320908 22.9303636,73.6790728 22.8243273,73.6216364 C22.0717636,73.219582 21.3354,72.7851272 20.6093454,72.3315272 C20.3943273,72.1960364 20.1807818,72.0590728 19.9687091,71.9206364 C19.3000909,71.4832364 18.6403091,71.0281636 17.9982,70.546582 C17.9319273,70.4965092 17.8686,70.4434908 17.8023273,70.393418 C17.8494546,70.3669092 17.8965818,70.3404 17.9437091,70.3138908 L29.5885636,63.962018 C31.5914727,62.8692544 32.8359273,60.7735636 32.8359273,58.4923092 L32.8344546,53.1875456 L32.4957273,52.7781272 C32.4633273,52.7413092 29.2792909,48.8680364 28.0760727,43.6236544 L27.9420546,43.0404544 L27.4398546,42.714982 C26.7314727,42.2569636 26.3073273,41.4911456 26.3073273,40.6649456 L26.3073273,35.4441272 C26.3073273,34.7593091 26.5974546,34.1216182 27.1276364,33.6429818 L27.6136364,33.2041091 L27.6136364,25.0010182 L27.6003818,24.8080909 C27.5959636,24.7727454 27.1615091,21.2308364 29.6563091,18.387 C31.7858727,15.9599454 35.4352908,14.7272727 40.5,14.7272727 C45.5455636,14.7272727 49.1832,15.9496364 51.3186544,18.3590182 C53.8105092,21.1734 53.4025636,24.7815818 53.399618,24.8110364 L53.3863636,33.2070546 L53.8723636,33.6459273 C54.4010728,34.1230909 54.6926728,34.7622546 54.6926728,35.4470728 L54.6926728,40.6678908 C54.6926728,41.7179456 53.9784,42.6708 52.953382,42.9874364 L52.2214364,43.2127636 L51.9858,43.9417636 C51.1168908,46.6412728 49.8798,49.1346 48.3098728,51.3525272 C47.924018,51.8974364 47.5484728,52.3804908 47.2259456,52.7501456 L46.8607092,53.1669272 L46.8607092,58.6145456 C46.8607092,60.988582 48.1802728,63.1240364 50.3039456,64.1844 L62.7735272,70.4184544 C62.8530544,70.458218 62.9311092,70.4994544 63.0091636,70.5406908 C62.851582,70.659982 62.689582,70.7704364 62.5305272,70.8853092 L62.5305272,70.8853092 Z" id="Shape"></path>
                        </g>
                    </g>
                </g>
            </g>
        </g>
    </g>
</svg>