<?xml version="1.0" encoding="UTF-8"?>
<svg width="60px" height="60px" viewBox="0 0 60 60" version="1.1" xmlns="http://www.w3.org/2000/svg" xmlns:xlink="http://www.w3.org/1999/xlink" xmlns:sketch="http://www.bohemiancoding.com/sketch/ns">
    <!-- Generator: Sketch 3.5.1 (25234) - http://www.bohemiancoding.com/sketch -->
    <title>responsive-icon</title>
    <desc>Created with Sketch.</desc>
    <defs></defs>
    <g id="Page-1" stroke="none" stroke-width="1" fill="none" fill-rule="evenodd" sketch:type="MSPage">
        <g id="Artboard-1" sketch:type="MSArtboardGroup" transform="translate(-274.000000, -637.000000)" fill="#9D9D9C">
            <g id="responsive-icon" sketch:type="MSLayerGroup" transform="translate(274.000000, 637.000000)">
                <g id="Group" sketch:type="MSShapeGroup">
                    <path d="M7.00242424,45 C5.89720783,44.9983312 5.00166876,44.1027922 5,42.9975758 C5.00433603,41.8944504 5.89929082,41.0022043 7.00242424,41.0012121 C8.10360405,41.00454 8.99546002,41.896396 8.99878788,42.9975758 C8.99779567,44.1007092 8.10554959,44.995664 7.00242424,45 L7.00242424,45 Z M7.00242424,38.9987879 C4.79515152,38.9987879 2.99757576,40.7963636 2.99757576,42.9975758 C3.00091327,45.2080086 4.79199142,46.9990867 7.00242424,47.0024242 C9.20363636,47.0024242 11.0012121,45.2048485 11.0012121,42.9975758 C11.0012121,40.7963636 9.20363636,38.9987879 7.00242424,38.9987879 L7.00242424,38.9987879 Z M36.0012121,6.00121212 L35,6.00121212 C34.4487194,6.00121214 34.0018182,6.44811336 34.0018182,6.99939394 C34.0018182,7.55067452 34.4487194,7.99757574 35,7.99757576 L36.0012121,7.99757576 C36.5524927,7.99757576 36.9993939,7.55067454 36.9993939,6.99939394 C36.9993939,6.44811334 36.5524927,6.00121212 36.0012121,6.00121212 L36.0012121,6.00121212 Z M51.0012121,6.00121212 C50.6363005,5.98849403 50.2935312,6.17591586 50.1073049,6.48998911 C49.9210785,6.80406235 49.9210785,7.19472553 50.1073049,7.50879877 C50.2935312,7.82287202 50.6363005,8.01029385 51.0012121,7.99757576 L52.0024242,7.99757576 C52.5539394,7.99757576 52.9975758,7.55393939 52.9975758,7.00242424 C52.9995156,6.73734706 52.8954876,6.4824774 52.7086147,6.29446633 C52.5217417,6.10645526 52.2675083,6.00088175 52.0024242,6.00121212 L51.0012121,6.00121212 L51.0012121,6.00121212 Z M55,6.00121212 C54.4487194,6.00121214 54.0018182,6.44811336 54.0018182,6.99939394 C54.0018182,7.55067452 54.4487194,7.99757574 55,7.99757576 L56.0012121,7.99757576 C56.5524927,7.99757576 56.9993939,7.55067454 56.9993939,6.99939394 C56.9993939,6.44811334 56.5524927,6.00121212 56.0012121,6.00121212 L55,6.00121212 L55,6.00121212 Z M40,6.00121212 L38.9987879,6.00121212 C38.4475073,6.00121214 38.0006061,6.44811336 38.0006061,6.99939394 C38.0006061,7.55067452 38.4475073,7.99757574 38.9987879,7.99757576 L40,7.99757576 C40.5512806,7.99757576 40.9981818,7.55067454 40.9981818,6.99939394 C40.9981818,6.44811334 40.5512806,6.00121212 40,6.00121212 L40,6.00121212 Z M47.0024242,6.00121212 C46.6375126,5.98849403 46.2947433,6.17591586 46.108517,6.48998911 C45.9222906,6.80406235 45.9222906,7.19472553 46.108517,7.50879877 C46.2947433,7.82287202 46.6375126,8.01029385 47.0024242,7.99757576 L47.9975758,7.99757576 C48.5353243,7.97883387 48.9615745,7.537469 48.9615745,6.99939394 C48.9615745,6.46131887 48.5353243,6.01995401 47.9975758,6.00121212 L47.0024242,6.00121212 L47.0024242,6.00121212 Z M43.9987879,6.00121212 L42.9975758,6.00121212 C42.7324917,6.00088175 42.4782583,6.10645526 42.2913853,6.29446633 C42.1045124,6.4824774 42.0004844,6.73734706 42.0024242,7.00242424 C42.0024242,7.55393939 42.4460606,7.99757576 42.9975758,7.99757576 L43.9987879,7.99757576 C44.5365364,7.97883387 44.9627866,7.537469 44.9627866,6.99939394 C44.9627866,6.46131887 44.5365364,6.01995401 43.9987879,6.00121212 L43.9987879,6.00121212 Z M32.0024242,6.00121212 L31.0012121,6.00121212 C30.6363005,5.98849403 30.2935312,6.17591586 30.1073049,6.48998911 C29.9210785,6.80406235 29.9210785,7.19472553 30.1073049,7.50879877 C30.2935312,7.82287202 30.6363005,8.01029385 31.0012121,7.99757576 L32.0024242,7.99757576 C32.5539394,7.99757576 32.9975758,7.55393939 32.9975758,7.00242424 C32.9995156,6.73734706 32.8954876,6.4824774 32.7086147,6.29446633 C32.5217417,6.10645526 32.2675083,6.00088175 32.0024242,6.00121212 L32.0024242,6.00121212 Z" id="Shape"></path>
                    <path d="M57.9975758,55.5963636 C57.9949083,56.92141 56.92141,57.9949083 55.5963636,57.9975758 L53.9987879,57.9975758 L53.9987879,27.9975758 L55.5963636,27.9975758 C55.9036364,27.9975758 56.1915152,28.0612121 56.46,28.1684848 C56.64,28.2375758 56.8060606,28.3248485 56.9630303,28.4327273 C57.6101403,28.8809171 57.9966384,29.6176861 57.9975758,30.4048485 L57.9975758,55.5963636 L57.9975758,55.5963636 Z M2.00242424,55.5963636 L2.00242424,30.4048485 C2.00242424,29.0775758 3.08121212,27.9975758 4.40363636,27.9975758 L12.0024242,27.9975758 L12.0024242,57.9975758 L4.40363636,57.9975758 C3.07858999,57.9949083 2.00509168,56.92141 2.00242424,55.5963636 L2.00242424,55.5963636 Z M28.5012121,27.9975758 L52.0024242,27.9975758 L52.0024242,57.9975758 L13.9987879,57.9975758 L13.9987879,27.9975758 L28.5018182,27.9975758 L28.5012121,27.9975758 Z M59.8975758,29.4824242 C59.7758773,28.9082398 59.5380794,28.3649964 59.1987879,27.8860606 C59.6533333,27.7927273 60,27.4072727 60,26.9236364 L60,25.9333333 C60,25.3818182 59.5515152,24.9321212 58.9987879,24.9321212 C58.4472727,24.9321212 57.9975758,25.3818182 57.9975758,25.9333333 L57.9975758,26.7242424 C57.9884848,26.7145455 57.9733333,26.7090909 57.9636364,26.7042424 C57.785591,26.5903634 57.5996668,26.4893001 57.4072727,26.4018182 C57.3484848,26.3775758 57.2951515,26.3478788 57.2363636,26.3242424 C57.1927273,26.3042424 57.1484848,26.2842424 57.1048485,26.2654545 C57.069697,26.2557576 57.0363636,26.2606061 56.9975758,26.250303 C56.5527273,26.0987879 56.0884848,26.0018182 55.5963636,26.0018182 L28.8569697,26.0018182 C28.6812121,25.7030303 28.3684848,25.4981818 27.9975758,25.4981818 C27.6315152,25.4981818 27.3236364,25.7078788 27.1539394,26.0018182 L4.40363636,26.0018182 C1.97757576,26.0012121 0,27.9787879 0,30.4048485 L0,55.5963636 C0,58.0224242 1.97757576,60 4.40363636,60 L55.5963636,60 C58.0224242,60 60,58.0224242 60,55.5963636 L60,29.9072727 C59.999001,29.7597846 59.9637292,29.614548 59.8969697,29.4830303 L59.8975758,29.4824242 Z M57.9975758,22.9484848 C58.0163468,23.4878864 58.4590598,23.9154611 58.9987879,23.9154611 C59.5385159,23.9154611 59.981229,23.4878864 60,22.9484848 L60,21.9575758 C59.981229,21.4181742 59.5385159,20.9905995 58.9987879,20.9905995 C58.4590598,20.9905995 58.0163468,21.4181742 57.9975758,21.9575758 L57.9975758,22.9484848 L57.9975758,22.9484848 Z M57.9975758,15 C57.9972536,15.2656366 58.1026347,15.5204861 58.2904682,15.7083196 C58.4783018,15.8961532 58.7331513,16.0015343 58.9987879,16.0012121 C59.2644245,16.0015343 59.5192739,15.8961532 59.7071075,15.7083196 C59.8949411,15.5204861 60.0003222,15.2656366 60,15 L60,14.0084848 C60,13.4569697 59.5515152,13.0072727 58.9987879,13.0072727 C58.4472727,13.0072727 57.9975758,13.4575758 57.9975758,14.0084848 L57.9975758,15 L57.9975758,15 Z M46.7036364,2.00242424 L47.6951515,2.00242424 C48.2345531,1.98365322 48.6621278,1.54094018 48.6621278,1.00121212 C48.6621278,0.461484062 48.2345531,0.0187710201 47.6951515,-1.83519866e-16 L46.7030303,-1.83519866e-16 C46.1515152,-1.83519866e-16 45.7018182,0.448484848 45.7018182,1.00121212 C45.7018182,1.55272727 46.1521212,2.00242424 46.7030303,2.00242424 L46.7036364,2.00242424 Z M54.6539394,2.00242424 L55.6448485,2.00242424 C56.1963636,2.00242424 56.6212121,1.55272727 56.6212121,1.00121212 C56.6212121,0.448484848 56.1472727,3.8524739e-17 55.5963636,3.8524739e-17 L54.6539394,3.8524739e-17 C54.1145378,0.0187710201 53.6869631,0.461484062 53.6869631,1.00121212 C53.6869631,1.54094018 54.1145378,1.98365322 54.6539394,2.00242424 L54.6539394,2.00242424 Z M50.6787879,2.00242424 L51.669697,2.00242424 C52.2212121,2.00242424 52.6715152,1.55272727 52.6715152,1.00121212 C52.6715152,0.448484848 52.2212121,3.8524739e-17 51.669697,3.8524739e-17 L50.6787879,3.8524739e-17 C50.1272727,3.8524739e-17 49.6775758,0.448484848 49.6775758,1.00121212 C49.6775758,1.55272727 50.1272727,2.00242424 50.6787879,2.00242424 L50.6787879,2.00242424 Z M57.8224242,3.49090909 C57.9787879,3.87757576 58.349697,4.11151515 58.7448485,4.11151515 C58.8721212,4.11151515 58.9987879,4.08727273 59.1266667,4.03757576 C59.6341095,3.82536304 59.877066,3.24496694 59.6721212,2.73454545 C59.5087054,2.33727129 59.2886461,1.96574264 59.0187879,1.63151515 C58.6709104,1.20293605 58.0415641,1.13728873 57.6127273,1.48484848 C57.405942,1.65091542 57.2737464,1.89244839 57.2453197,2.1561344 C57.216893,2.41982041 57.2945725,2.68397899 57.4612121,2.89030303 C57.6127273,3.07151515 57.7351515,3.27636364 57.8224242,3.49151515 L57.8224242,3.49090909 Z M58.9987879,12.0260606 C59.5515152,12.0260606 60,11.5824242 60,11.030303 L60,10.0339394 C59.981229,9.49453785 59.5385159,9.06696311 58.9987879,9.06696311 C58.4590598,9.06696311 58.0163468,9.49453785 57.9975758,10.0339394 L57.9975758,11.029697 C57.9975758,11.5824242 58.4472727,12.0260606 58.9987879,12.0260606 L58.9987879,12.0260606 Z M57.9975758,18.9751515 C57.9975758,19.5315152 58.4472727,19.9751515 58.9987879,19.9751515 C59.5515152,19.9751515 60,19.5315152 60,18.9751515 L60,17.9836364 C59.981229,17.4442348 59.5385159,17.0166601 58.9987879,17.0166601 C58.4590598,17.0166601 58.0163468,17.4442348 57.9975758,17.9836364 L57.9975758,18.9751515 L57.9975758,18.9751515 Z M58.9987879,5.05878788 C58.4472727,5.05878788 57.9975758,5.50727273 57.9975758,6.06 L57.9975758,7.05636364 C57.9975758,7.60787879 58.4472727,8.05151515 58.9987879,8.05151515 C59.5515152,8.05151515 60,7.60727273 60,7.05636364 L60,6.06 C60,5.50727273 59.5515152,5.05878788 58.9987879,5.05878788 L58.9987879,5.05878788 Z M27.9975758,12.5775758 C28.550303,12.5775758 28.9987879,12.1290909 28.9987879,11.5775758 L28.9987879,10.5812121 C28.9987879,10.0284848 28.550303,9.58484848 27.9975758,9.58484848 C27.4460606,9.58484848 27.0024242,10.0284848 27.0024242,10.5812121 L27.0024242,11.5775758 C27.0024242,12.1290909 27.4460606,12.5775758 27.9975758,12.5775758 L27.9975758,12.5775758 Z M27.9975758,16.5527273 C28.550303,16.5527273 28.9987879,16.1042424 28.9987879,15.5515152 L28.9987879,14.5563636 C28.9987879,14.0036364 28.550303,13.5551515 27.9975758,13.5551515 C27.4460606,13.5551515 27.0024242,14.0036364 27.0024242,14.5563636 L27.0024242,15.5515152 C27.0024242,16.1036364 27.4460606,16.5527273 27.9975758,16.5527273 L27.9975758,16.5527273 Z M27.9975758,24.4969697 C28.550303,24.4969697 28.9987879,24.0527273 28.9987879,23.5012121 L28.9987879,22.5048485 C28.9987879,21.9527273 28.550303,21.5036364 27.9975758,21.5036364 C27.4460606,21.5036364 27.0024242,21.9521212 27.0024242,22.5048485 L27.0024242,23.5012121 C27.0024242,24.0527273 27.4460606,24.4975758 27.9975758,24.4975758 L27.9975758,24.4969697 Z M42.729697,2.00242424 L43.7212121,2.00242424 C44.2775758,2.00242424 44.7212121,1.55272727 44.7212121,1.00121212 C44.7212121,0.448484848 44.2775758,3.8524739e-17 43.7212121,3.8524739e-17 L42.729697,3.8524739e-17 C42.1902954,0.0187710201 41.7627207,0.461484062 41.7627207,1.00121212 C41.7627207,1.54094018 42.1902954,1.98365322 42.729697,2.00242424 L42.729697,2.00242424 Z M27.9975758,8.60363636 C28.550303,8.60363636 28.9987879,8.15393939 28.9987879,7.60242424 L28.9987879,6.60606061 C28.9987878,6.05478003 28.5518866,5.60787885 28.0006061,5.60787885 C27.4493255,5.60787885 27.0024243,6.05478003 27.0024242,6.60606061 L27.0024242,7.60242424 C27.0024242,8.15393939 27.4460606,8.60363636 27.9975758,8.60363636 L27.9975758,8.60363636 Z M27.9975758,20.5272727 C28.550303,20.5272727 28.9987879,20.0775758 28.9987879,19.5260606 L28.9987879,18.529697 C28.9987879,17.9781818 28.550303,17.5284848 27.9975758,17.5284848 C27.4460606,17.5284848 27.0024242,17.9787879 27.0024242,18.529697 L27.0024242,19.5260606 C27.0024242,20.0775758 27.4460606,20.5272727 27.9975758,20.5272727 L27.9975758,20.5272727 Z M38.7551515,2.00242424 L39.7460606,2.00242424 C40.2975758,2.00242424 40.7472727,1.55272727 40.7472727,1.00121212 C40.7472727,0.448484848 40.2975758,3.8524739e-17 39.7460606,3.8524739e-17 L38.7551515,3.8524739e-17 C38.21575,0.0187710201 37.7881752,0.461484062 37.7881752,1.00121212 C37.7881752,1.54094018 38.21575,1.98365322 38.7551515,2.00242424 L38.7551515,2.00242424 Z M34.78,2.00242424 L35.7763636,2.00242424 C36.3278788,2.00242424 36.7727273,1.55272727 36.7727273,1.00121212 C36.7727273,0.448484848 36.3272727,3.8524739e-17 35.7757576,3.8524739e-17 L34.7793939,3.8524739e-17 C34.2278788,3.8524739e-17 33.7781818,0.448484848 33.7781818,1.00121212 C33.7781818,1.55272727 34.2278788,2.00242424 34.7793939,2.00242424 L34.78,2.00242424 Z M27.8612121,4.60969697 C27.94,4.62363636 28.0127273,4.63393939 28.0915152,4.63393939 C28.5448485,4.63393939 28.9551515,4.32121212 29.0624242,3.85757576 C29.1147569,3.63126392 29.2003325,3.41395486 29.3163636,3.21272727 C29.5915019,2.73408049 29.4265256,2.12301701 28.9478788,1.84787879 C28.469232,1.57274057 27.8581685,1.73771685 27.5830303,2.21636364 C27.3694236,2.58876197 27.2113899,2.9903799 27.1139394,3.40848485 C26.9898169,3.94634022 27.3238791,4.48333236 27.8612121,4.60969697 L27.8612121,4.60969697 Z M30.810303,2.05151515 C30.8684848,2.05151515 30.9224242,2.04606061 30.9860606,2.03636364 C31.1224242,2.01151515 31.26,2.00242424 31.4060606,2.00242424 L31.8012121,2.00242424 C32.3539394,2.00242424 32.7975758,1.55272727 32.7975758,1.00121212 C32.7975758,0.448484848 32.3539394,3.8524739e-17 31.8012121,3.8524739e-17 L31.4060606,3.8524739e-17 C31.1472727,3.8524739e-17 30.8884848,0.0248484848 30.6351515,0.0684848485 C30.3736396,0.113121044 30.1408,0.260389259 29.9884044,0.477544536 C29.8360087,0.694699812 29.7766895,0.963741524 29.8236364,1.22484848 C29.9101105,1.70205332 30.324724,2.04964574 30.809697,2.05151515 L30.810303,2.05151515 Z M5.49818182,20.530303 C6.05090909,20.530303 6.49939394,20.0806061 6.49939394,19.5290909 C6.49939394,13.4642424 11.4357576,8.52787879 17.5006061,8.52787879 L20.0836364,8.52787879 L15.7921212,12.8206061 C15.6042978,13.0081804 15.4987587,13.2627354 15.4987587,13.5281818 C15.4987587,13.7936282 15.6042978,14.0481832 15.7921212,14.2357576 C15.9793776,14.4241785 16.2340517,14.5301307 16.499697,14.5301307 C16.7653422,14.5301307 17.0200163,14.4241785 17.2072727,14.2357576 L23.2036364,8.23575758 C23.2969697,8.14181818 23.369697,8.03454545 23.4236364,7.90848485 C23.5260606,7.66424242 23.5260606,7.39030303 23.4236364,7.14666667 C23.3716628,7.0246429 23.2970093,6.91358814 23.2036364,6.81939394 L17.2072727,0.823030303 C16.8137343,0.455363147 16.1997083,0.465399577 15.8183962,0.845731885 C15.437084,1.22606419 15.4254678,1.8400624 15.7921212,2.23454545 L20.0830303,6.52545455 L17.5012121,6.52545455 C10.3321212,6.52545455 4.4969697,12.3606061 4.4969697,19.5290909 C4.4969697,20.0806061 4.94727273,20.530303 5.49818182,20.530303 L5.49818182,20.530303 Z" id="Shape"></path>
                </g>
            </g>
        </g>
    </g>
</svg>