<?xml version="1.0" encoding="UTF-8"?>
<svg width="61px" height="77px" viewBox="0 0 61 77" version="1.1" xmlns="http://www.w3.org/2000/svg" xmlns:xlink="http://www.w3.org/1999/xlink" xmlns:sketch="http://www.bohemiancoding.com/sketch/ns">
    <!-- Generator: Sketch 3.5.1 (25234) - http://www.bohemiancoding.com/sketch -->
    <title>statement-icon</title>
    <desc>Created with Sketch.</desc>
    <defs></defs>
    <g id="Page-1" stroke="none" stroke-width="1" fill="none" fill-rule="evenodd" sketch:type="MSPage">
        <g id="Artboard-1" sketch:type="MSArtboardGroup" transform="translate(-490.000000, -616.000000)" fill="#4DB7C3">
            <g id="statement-icon" sketch:type="MSLayerGroup" transform="translate(490.000000, 616.000000)">
                <g id="00358FAE-694F-48A5-865D-227D0CE09EEF" sketch:type="MSShapeGroup">
                    <g id="Group">
                        <path d="M46.1555556,28.0346957 L14.5424444,28.0346957 C14.2053527,28.0365126 13.8827918,28.1717913 13.6457239,28.4107708 C13.408656,28.6497503 13.2765013,28.9728539 13.2783333,29.309 C13.2783333,30.0131304 13.8432222,30.5833043 14.5424444,30.5833043 L46.1555556,30.5833043 C46.4932454,30.5823967 46.8166912,30.4475188 47.0545035,30.2084403 C47.2923158,29.9693619 47.4249426,29.6457388 47.4231111,29.309 C47.4249426,28.9722612 47.2923158,28.6486381 47.0545035,28.4095597 C46.8166912,28.1704812 46.4932454,28.0356033 46.1555556,28.0346957 L46.1555556,28.0346957 Z M14.5424444,20.3888696 L27.187,20.3888696 C27.5246898,20.3879619 27.8481357,20.253084 28.085948,20.0140056 C28.3237603,19.7749271 28.4563871,19.4513041 28.4545556,19.1145652 C28.4563871,18.7778264 28.3237603,18.4542034 28.085948,18.2151249 C27.8481357,17.9760464 27.5246898,17.8411685 27.187,17.8402609 L14.5458889,17.8402609 C14.2081991,17.8411685 13.8847532,17.9760464 13.6469409,18.2151249 C13.4091286,18.4542034 13.2765018,18.7778264 13.2783333,19.1145652 C13.2783333,19.8186957 13.8432222,20.3888696 14.5424444,20.3888696 L14.5424444,20.3888696 Z M46.1555556,38.2291304 L14.5424444,38.2291304 C14.2053527,38.2309474 13.8827918,38.3662261 13.6457239,38.6052056 C13.408656,38.8441851 13.2765013,39.1672887 13.2783333,39.5034348 C13.2783333,40.2075652 13.8432222,40.7777391 14.5424444,40.7777391 L46.1555556,40.7777391 C46.4932454,40.7768315 46.8166912,40.6419536 47.0545035,40.4028751 C47.2923158,40.1637966 47.4249426,39.8401736 47.4231111,39.5034348 C47.4249426,39.1666959 47.2923158,38.8430729 47.0545035,38.6039944 C46.8166912,38.364916 46.4932454,38.2300381 46.1555556,38.2291304 L46.1555556,38.2291304 Z M46.1555556,48.4235652 L14.5424444,48.4235652 C14.2053527,48.4253822 13.8827918,48.5606609 13.6457239,48.7996404 C13.408656,49.0386199 13.2765013,49.3617235 13.2783333,49.6978696 C13.2783333,50.402 13.8432222,50.9721739 14.5424444,50.9721739 L46.1555556,50.9721739 C46.4932454,50.9712663 46.8166912,50.8363884 47.0545035,50.5973099 C47.2923158,50.3582314 47.4249426,50.0346084 47.4231111,49.6978696 C47.4249426,49.3611307 47.2923158,49.0375077 47.0545035,48.7984292 C46.8166912,48.5593507 46.4932454,48.4244728 46.1555556,48.4235652 L46.1555556,48.4235652 Z M46.1555556,58.618 L14.5424444,58.618 C14.2053527,58.619817 13.8827918,58.7550956 13.6457239,58.9940751 C13.408656,59.2330546 13.2765013,59.5561583 13.2783333,59.8923043 C13.2783333,60.5964348 13.8432222,61.1666087 14.5424444,61.1666087 L46.1555556,61.1666087 C46.4932454,61.1657011 46.8166912,61.0308232 47.0545035,60.7917447 C47.2923158,60.5526662 47.4249426,60.2290432 47.4231111,59.8923043 C47.4249426,59.5555655 47.2923158,59.2319425 47.0545035,58.992864 C46.8166912,58.7537855 46.4932454,58.6189076 46.1555556,58.618 L46.1555556,58.618 Z" id="Shape"></path>
                        <path d="M41.6226667,0 L0.633777778,0 L0.633777778,76.4582609 L60.0676667,76.4582609 L60.0676667,18.5856087 L41.6226667,0 L41.6226667,0 Z M42.3632222,4.35186957 L55.7517778,17.8402609 L42.3632222,17.8402609 L42.3632222,4.35186957 L42.3632222,4.35186957 Z M3.162,73.9096522 L3.162,2.5486087 L39.835,2.5486087 L39.835,20.3888696 L57.5394444,20.3888696 L57.5394444,73.9096522 L3.162,73.9096522 L3.162,73.9096522 Z" id="Shape"></path>
                    </g>
                </g>
            </g>
        </g>
    </g>
</svg>