<?xml version="1.0" encoding="UTF-8"?>
<svg width="85px" height="87px" viewBox="0 0 85 87" version="1.1" xmlns="http://www.w3.org/2000/svg" xmlns:xlink="http://www.w3.org/1999/xlink" xmlns:sketch="http://www.bohemiancoding.com/sketch/ns">
    <!-- Generator: Sketch 3.5.1 (25234) - http://www.bohemiancoding.com/sketch -->
    <title>support</title>
    <desc>Created with Sketch.</desc>
    <defs></defs>
    <g id="Page-1" stroke="none" stroke-width="1" fill="none" fill-rule="evenodd" sketch:type="MSPage">
        <g id="Artboard-1" sketch:type="MSArtboardGroup" transform="translate(-1551.000000, -857.000000)" fill="#FFFFFF">
            <g id="support" sketch:type="MSLayerGroup" transform="translate(1551.000000, 855.000000)">
                <g id="Page-1" sketch:type="MSShapeGroup">
                    <g>
                        <g id="support">
                            <path d="M16.5277778,28.4305556 L69.0861112,28.4305556 C70.7552384,28.4305556 72.1083335,27.0728177 72.1083335,25.397963 C72.1083335,23.7231083 70.7552384,22.3653704 69.0861112,22.3653704 L16.5277778,22.3653704 C14.8586506,22.3653704 13.5055557,23.7231083 13.5055557,25.397963 C13.5055557,27.0728177 14.8586506,28.4305556 16.5277778,28.4305556 L16.5277778,28.4305556 Z" id="Shape"></path>
                            <path d="M16.5277778,48.1897917 L69.0861112,48.1897917 C70.7552384,48.1897917 72.1083335,46.8320536 72.1083335,45.157199 C72.1083335,43.4823443 70.7552384,42.1246063 69.0861112,42.1246063 L16.5277778,42.1246063 C14.8586505,42.1246063 13.5055555,43.4823443 13.5055555,45.157199 C13.5055555,46.8320536 14.8586505,48.1897917 16.5277778,48.1897917 L16.5277778,48.1897917 Z" id="Shape"></path>
                            <path d="M81.8833335,2.36921296 L3.02222222,2.36921296 C1.35309498,2.36921296 2.04409133e-16,3.72695091 0,5.40180557 L0,5.40180557 L0,66.0536573 L0,66.0536573 C0.00636481053,66.3859896 0.0702800511,66.7146792 0.188888889,67.0250348 C0.256418079,67.2152115 0.343459611,67.3978321 0.448611112,67.5699537 L0.590277777,67.806875 C1.01733673,68.4000982 1.64816333,68.8136526 2.36111111,68.9677895 L2.7625,68.9677895 L2.99861111,68.9677895 L7.57916665,68.9677895 L7.57916665,84.817824 C7.55218976,85.7003654 7.88468718,86.5558483 8.5,87.187037 L8.5,87.187037 C9.08657266,87.7905567 9.8911209,88.130895 10.73125,88.130895 C11.5713791,88.130895 12.3759273,87.7905567 12.9625,87.187037 L30.6944445,69.1573265 L81.8833335,69.1573265 C82.7011122,69.1829822 83.4943148,68.8748401 84.0816855,68.3033144 C84.6690562,67.7317887 85.0003995,66.9457195 85,66.1247338 L85,5.40180557 C85.0003995,4.5808198 84.6690562,3.79475092 84.0816855,3.22322501 C83.4943148,2.6516991 82.7011122,2.34355706 81.8833335,2.36921296 L81.8833335,2.36921296 Z M78.8611112,63.068449 L28.9236111,63.068449 C28.0902213,63.0878273 27.2959293,63.4269836 26.7041667,64.0161343 L13.5763889,77.4021875 L13.5763889,66.006273 C13.5768505,64.3980326 12.2981127,63.0833546 10.6958333,63.0447568 L5.97361112,63.0447568 L5.97361112,8.5528588 L78.8611112,8.5528588 L78.8611112,63.068449 L78.8611112,63.068449 Z" id="Shape"></path>
                        </g>
                    </g>
                </g>
            </g>
        </g>
    </g>
</svg>