<?xml version="1.0" encoding="UTF-8"?>
<svg width="84px" height="84px" viewBox="0 0 84 84" version="1.1" xmlns="http://www.w3.org/2000/svg" xmlns:xlink="http://www.w3.org/1999/xlink" xmlns:sketch="http://www.bohemiancoding.com/sketch/ns">
    <!-- Generator: Sketch 3.5.1 (25234) - http://www.bohemiancoding.com/sketch -->
    <title>toggle</title>
    <desc>Created with Sketch.</desc>
    <defs></defs>
    <g id="Page-1" stroke="none" stroke-width="1" fill="none" fill-rule="evenodd" sketch:type="MSPage">
        <g id="Artboard-1" sketch:type="MSArtboardGroup" transform="translate(-384.000000, -616.000000)">
            <g id="toggle" sketch:type="MSLayerGroup" transform="translate(384.000000, 616.000000)">
                <g id="Layer_1" sketch:type="MSShapeGroup">
                    <circle id="Oval" fill="#4DB7C3" cx="41.9637149" cy="41.9637149" r="41.9092873"></circle>
                    <g id="Group" transform="translate(19.412527, 17.416847)" fill="#FFFFFF">
                        <path d="M4.06393089,20.6462203 C5.64233261,20.6462203 7.0574514,19.7028078 7.67429806,18.2514039 C10.1961123,12.2462203 16.1105832,8.01900648 23.0228942,8.01900648 C26.8328294,8.01900648 30.3161987,9.32526998 33.1101512,11.4842333 L30.9149028,11.8289417 C30.1710583,11.937797 29.5904968,12.5365011 29.4816415,13.2984881 C29.3727862,14.0423326 29.7900648,14.7680346 30.4794816,15.0946004 L42.5261339,20.5192225 C43.0522678,20.7550756 43.6691145,20.7187905 44.1589633,20.3922246 C44.6488121,20.0838013 44.9390929,19.5395248 44.9390929,18.9589633 L44.9935205,5.67861771 C44.9935205,4.91663067 44.5036717,4.26349892 43.7779698,4.02764579 C43.0522678,3.80993521 42.2721382,4.08207343 41.8548596,4.71706263 L40.1857451,7.22073434 C35.7589633,2.86652268 29.6812095,0.163282937 23.0047516,0.163282937 C12.863067,0.163282937 4.13650108,6.36803456 0.417278618,15.1671706 C-0.108855292,16.3827214 0.0362850972,17.7796976 0.761987041,18.8863931 C1.50583153,19.974946 2.73952484,20.6462203 4.06393089,20.6462203 L4.06393089,20.6462203 L4.06393089,20.6462203 Z" id="Shape"></path>
                        <path d="M45.2656587,30.4613391 C44.5399568,29.3546436 43.288121,28.6833693 41.9637149,28.6833693 C40.3853132,28.6833693 38.9701944,29.6267819 38.3533477,31.0781857 C35.8315335,37.0833693 29.9170626,41.3105832 23.0047516,41.3105832 C19.1948164,41.3105832 15.7114471,40.0043197 12.9174946,37.8453564 L15.112743,37.5006479 C15.8565875,37.3917927 16.437149,36.7930886 16.5460043,36.0311015 C16.6548596,35.287257 16.237581,34.5615551 15.5481641,34.2349892 L3.51965443,28.8466523 C2.99352052,28.6107991 2.37667387,28.6470842 1.88682505,28.9736501 C1.39697624,29.2820734 1.10669546,29.8263499 1.10669546,30.4069114 L1.05226782,43.687257 C1.05226782,44.4492441 1.54211663,45.1023758 2.26781857,45.3382289 C2.99352052,45.5559395 3.77365011,45.2838013 4.19092873,44.6488121 L5.8600432,42.1451404 C10.2868251,46.4993521 16.3645788,49.2025918 23.0591793,49.2025918 C33.2008639,49.2025918 41.9274298,42.9978402 45.6466523,34.1987041 C46.1365011,32.9650108 45.9913607,31.5680346 45.2656587,30.4613391 L45.2656587,30.4613391 L45.2656587,30.4613391 Z" id="Shape"></path>
                    </g>
                </g>
            </g>
        </g>
    </g>
</svg>