<?xml version="1.0" encoding="UTF-8"?>
<svg width="74px" height="75px" viewBox="0 0 74 75" version="1.1" xmlns="http://www.w3.org/2000/svg" xmlns:xlink="http://www.w3.org/1999/xlink" xmlns:sketch="http://www.bohemiancoding.com/sketch/ns">
    <!-- Generator: Sketch 3.5.1 (25234) - http://www.bohemiancoding.com/sketch -->
    <title>whatsapp</title>
    <desc>Created with Sketch.</desc>
    <defs></defs>
    <g id="Page-1" stroke="none" stroke-width="1" fill="none" fill-rule="evenodd" sketch:type="MSPage">
        <g id="Artboard-1" sketch:type="MSArtboardGroup" transform="translate(-1388.000000, -592.000000)" fill="#FFFFFF">
            <g id="whatsapp" sketch:type="MSLayerGroup" transform="translate(1388.000000, 592.000000)">
                <g id="whatsapp-copy" sketch:type="MSShapeGroup">
                    <g id="Page-1">
                        <g id="whatsapp-copy">
                            <g id="Layer_1">
                                <g id="Group">
                                    <path d="M35.208524,0.0433174224 C15.5649038,0.984486874 0.0633269231,17.4461814 0.122918269,37.2350835 C0.1410625,43.2622912 1.58708654,48.9511933 4.13795192,53.9778043 L0.221466346,73.1078162 C0.00960576923,74.1426014 0.937096154,75.0486874 1.9586875,74.8052506 L20.5872981,70.3641408 C25.3732837,72.7630668 30.7489567,74.1486874 36.4382404,74.2360382 C56.515899,74.5446301 73.2571538,58.502685 73.8829519,38.3069212 C74.5537548,16.6584129 56.7976683,-0.991288783 35.208524,0.0433174224 L35.208524,0.0433174224 Z M54.9151154,45.1702267 L47.7696683,43.1056683 C46.8302596,42.8343079 45.8186298,43.1024463 45.1341298,43.8042959 L43.3867692,45.5957041 C42.6499712,46.351074 41.5319663,46.5937947 40.5568029,46.196778 C37.1766394,44.8202864 30.0662356,38.4587112 28.2503894,35.2766706 C27.7265192,34.3587709 27.813149,33.2112172 28.4563798,32.3736874 L29.9819183,30.3877088 C30.5796106,29.6096062 30.7057308,28.5646181 30.3104712,27.6651551 L27.3042212,20.8233294 C26.5841442,19.1846062 24.5030721,18.7075776 23.1435,19.8646181 C21.1492356,21.5618735 18.7830144,24.1410501 18.495375,26.998389 C17.988226,32.0360979 20.1352933,38.3865752 28.2544808,46.0118735 C37.6343365,54.8212411 45.1456923,55.9850835 50.036274,54.7929594 C52.8102067,54.1168854 55.0270048,51.4065036 56.4260673,49.1872912 C57.3798846,47.6742243 56.6267212,45.6647971 54.9151154,45.1702267 L54.9151154,45.1702267 Z" id="Shape"></path>
                                </g>
                            </g>
                        </g>
                    </g>
                </g>
            </g>
        </g>
    </g>
</svg>