<?xml version="1.0" encoding="UTF-8"?>
<svg width="92px" height="78px" viewBox="0 0 92 78" version="1.1" xmlns="http://www.w3.org/2000/svg" xmlns:xlink="http://www.w3.org/1999/xlink" xmlns:sketch="http://www.bohemiancoding.com/sketch/ns">
    <!-- Generator: Sketch 3.5.1 (25234) - http://www.bohemiancoding.com/sketch -->
    <title>add-money-bank</title>
    <desc>Created with Sketch.</desc>
    <defs>
        <path id="path-1" d="M44.129561,2.63771429 L2.4577561,20.6902857 C0.664878049,21.4674286 -0.32097561,23.3417143 0.094,25.1885714 C0.506682927,27.0354286 2.20326829,28.3565714 4.16809756,28.3565714 L87.5392195,28.3565714 C89.8433659,28.3565714 91.7073171,26.5622857 91.7073171,24.3451429 C91.7073171,22.5805714 90.528878,21.0902857 88.8919024,20.5485714 L47.5456585,2.63771429 C46.456129,2.16591084 45.2190905,2.16591084 44.129561,2.63771429 L44.129561,2.63771429 Z"></path>
        <path id="path-3" d="M44.129561,2.63771429 L2.4577561,20.6902857 C0.664878049,21.4674286 -0.32097561,23.3417143 0.094,25.1885714 C0.506682927,27.0354286 2.20326829,28.3565714 4.16809756,28.3565714 L87.5392195,28.3565714 C89.8433659,28.3565714 91.7073171,26.5622857 91.7073171,24.3451429 C91.7073171,22.5805714 90.528878,21.0902857 88.8919024,20.5485714 L47.5456585,2.63771429 C46.456129,2.16591084 45.2190905,2.16591084 44.129561,2.63771429 L44.129561,2.63771429 Z"></path>
    </defs>
    <g id="Page-1" stroke="none" stroke-width="1" fill="none" fill-rule="evenodd" sketch:type="MSPage">
        <g id="Artboard-1" sketch:type="MSArtboardGroup" transform="translate(-1598.000000, -218.000000)">
            <g id="add-money-bank" sketch:type="MSLayerGroup" transform="translate(1596.000000, 216.000000)">
                <g id="Group">
                    <path d="M6.46078049,28.3588571 L89.8319024,28.3588571 C92.1383415,28.3588571 94,26.5645714 94,24.3451429 C94,22.5851429 92.821561,21.0925714 91.1845854,20.5508571 L49.8383415,2.63771429 C48.7485266,2.16728203 47.5120588,2.16728203 46.4222439,2.63771429 L4.75043902,20.688 C2.95756098,21.4651429 1.97170732,23.3417143 2.38439024,25.1908571 C2.79707317,27.0377143 4.49365854,28.3588571 6.4584878,28.3588571" id="Shape" fill="#4DB7C3" sketch:type="MSShapeGroup"></path>
                    <g transform="translate(2.292683, 0.000000)">
                        <g id="b" fill="#FFFFFF" sketch:type="MSShapeGroup">
                            <path d="M44.129561,2.63771429 L2.4577561,20.6902857 C0.664878049,21.4674286 -0.32097561,23.3417143 0.094,25.1885714 C0.506682927,27.0354286 2.20326829,28.3565714 4.16809756,28.3565714 L87.5392195,28.3565714 C89.8433659,28.3565714 91.7073171,26.5622857 91.7073171,24.3451429 C91.7073171,22.5805714 90.528878,21.0902857 88.8919024,20.5485714 L47.5456585,2.63771429 C46.456129,2.16591084 45.2190905,2.16591084 44.129561,2.63771429 L44.129561,2.63771429 Z" id="a"></path>
                        </g>
                        <g id="Clipped">
                            <mask id="mask-2" sketch:name="a" fill="white">
                                <use xlink:href="#path-1"></use>
                            </mask>
                            <g id="a"></g>
                            <path d="M-174.243902,1130.19429 L685.512195,1130.19429 L685.512195,-270.765714 L-174.243902,-270.765714 L-174.243902,1130.19429 Z" id="Shape" fill="#4DB7C3" sketch:type="MSShapeGroup" mask="url(#mask-2)"></path>
                        </g>
                    </g>
                    <g transform="translate(2.292683, 0.000000)">
                        <g id="d" fill="#FFFFFF" sketch:type="MSShapeGroup">
                            <path d="M44.129561,2.63771429 L2.4577561,20.6902857 C0.664878049,21.4674286 -0.32097561,23.3417143 0.094,25.1885714 C0.506682927,27.0354286 2.20326829,28.3565714 4.16809756,28.3565714 L87.5392195,28.3565714 C89.8433659,28.3565714 91.7073171,26.5622857 91.7073171,24.3451429 C91.7073171,22.5805714 90.528878,21.0902857 88.8919024,20.5485714 L47.5456585,2.63771429 C46.456129,2.16591084 45.2190905,2.16591084 44.129561,2.63771429 L44.129561,2.63771429 Z" id="c"></path>
                        </g>
                        <g id="Clipped">
                            <mask id="mask-4" sketch:name="c" fill="white">
                                <use xlink:href="#path-3"></use>
                            </mask>
                            <g id="c"></g>
                            <path d="M-11.4634146,38.8617143 L103.170732,38.8617143 L103.170732,-8.21714286 L-11.4634146,-8.21714286 L-11.4634146,38.8617143 Z" id="Shape" fill="#4DB7C3" sketch:type="MSShapeGroup" mask="url(#mask-4)"></path>
                        </g>
                    </g>
                    <g transform="translate(4.585366, 27.428571)" id="Shape" fill="#4DB7C3" sketch:type="MSShapeGroup">
                        <path d="M81.7341463,39.3508571 L5.38780488,39.3508571 C3.76687805,39.3508571 2.45087805,40.5577143 2.45087805,42.0411429 L2.45087805,43.6937143 C2.45087805,45.1794286 3.76687805,46.3885714 5.3855122,46.3885714 L81.7318537,46.3885714 C83.3573659,46.3885714 84.6710732,45.1794286 84.6710732,43.6937143 L84.6710732,42.0411429 C84.6710732,40.5554286 83.3573659,39.3508571 81.7341463,39.3508571 M79.5996585,1.98171429 L7.52458537,1.98171429 C5.90136585,1.98171429 4.58536585,3.184 4.58536585,4.672 C4.58536585,6.15771429 5.90136585,7.36457143 7.52458537,7.36457143 L79.5996585,7.36457143 C81.222878,7.36457143 82.5342927,6.15771429 82.5342927,4.672 C82.5342927,3.18628571 81.222878,1.98171429 79.5996585,1.98171429 M84.1850244,46.9988571 L2.93463415,46.9988571 C1.316,46.9988571 0,48.2057143 0,49.6914286 C0,51.1771429 1.316,52.384 2.93463415,52.384 L84.1873171,52.384 C85.8105366,52.384 87.1219512,51.1771429 87.1219512,49.6914286 C87.1219512,48.2034286 85.8105366,46.9988571 84.1873171,46.9988571"></path>
                        <path d="M13.6139512,41.5954286 L13.6139512,4.97142857 C13.6139512,3.48342857 12.2979512,2.27885714 10.6770244,2.27885714 C9.05380488,2.27885714 7.7355122,3.48342857 7.7355122,4.97142857 L7.7355122,41.5954286 C7.7355122,43.0811429 9.05380488,44.2857143 10.6770244,44.2857143 C12.2956585,44.2857143 13.6116585,43.0788571 13.6116585,41.5954286 M79.5285854,41.5954286 L79.5285854,4.97142857 C79.5285854,3.48342857 78.2102927,2.27885714 76.5893659,2.27885714 C74.968439,2.27885714 73.6501463,3.48342857 73.6501463,4.97142857 L73.6501463,41.5954286 C73.6501463,43.0811429 74.968439,44.2857143 76.5893659,44.2857143 C78.2125854,44.2857143 79.5285854,43.0788571 79.5285854,41.5954286 M35.25,41.5954286 L35.25,4.97142857 C35.25,3.48342857 33.934,2.27885714 32.3130732,2.27885714 C30.6898537,2.27885714 29.3738537,3.48342857 29.3738537,4.97142857 L29.3738537,41.5954286 C29.3738537,43.0811429 30.6898537,44.2857143 32.3130732,44.2857143 C33.934,44.2857143 35.25,43.0788571 35.25,41.5954286 M58.0346829,41.5954286 L58.0346829,4.97142857 C58.0346829,3.48342857 56.7163902,2.27885714 55.0977561,2.27885714 C53.4722439,2.27885714 52.1585366,3.48342857 52.1585366,4.97142857 L52.1585366,41.5954286 C52.1585366,43.0811429 53.4722439,44.2857143 55.0977561,44.2857143 C56.7163902,44.2857143 58.0323902,43.0788571 58.0323902,41.5954286"></path>
                    </g>
                </g>
            </g>
        </g>
    </g>
</svg>