<?xml version="1.0" encoding="UTF-8"?>
<svg width="43px" height="78px" viewBox="0 0 43 78" version="1.1" xmlns="http://www.w3.org/2000/svg" xmlns:xlink="http://www.w3.org/1999/xlink" xmlns:sketch="http://www.bohemiancoding.com/sketch/ns">
    <!-- Generator: Sketch 3.5.1 (25234) - http://www.bohemiancoding.com/sketch -->
    <title>facebook</title>
    <desc>Created with Sketch.</desc>
    <defs></defs>
    <g id="Page-1" stroke="none" stroke-width="1" fill="none" fill-rule="evenodd" sketch:type="MSPage">
        <g id="Artboard-1" sketch:type="MSArtboardGroup" transform="translate(-1498.000000, -590.000000)" fill="#FFFFFF">
            <g id="facebook" sketch:type="MSLayerGroup" transform="translate(1498.000000, 590.000000)">
                <g id="Shape" sketch:type="MSShapeGroup">
                    <g id="Page-1">
                        <g id="facebook">
                            <path d="M41.0010629,0.0162292063 L30.8121086,0 C19.3651678,0 11.9676518,7.53440903 11.9676518,19.1959053 L11.9676518,28.0465029 L1.72311395,28.0465029 C0.837864256,28.0465029 0.121,28.758965 0.121,29.6377765 L0.121,42.461284 C0.121,43.3400955 0.83868166,44.0517461 1.72311395,44.0517461 L11.9676518,44.0517461 L11.9676518,76.4095377 C11.9676518,77.2883494 12.6845161,78 13.5697658,78 L26.9359737,78 C27.8212234,78 28.5380876,77.2875379 28.5380876,76.4095377 L28.5380876,44.0517461 L40.5163416,44.0517461 C41.4015913,44.0517461 42.1184557,43.3400955 42.1184557,42.461284 L42.1233601,29.6377765 C42.1233601,29.2158173 41.9541571,28.81171 41.6541695,28.5130927 C41.3541819,28.2144753 40.9454793,28.0465029 40.5204288,28.0465029 L28.5380876,28.0465029 L28.5380876,20.5437408 C28.5380876,16.9376112 29.4037196,15.1069567 34.1356776,15.1069567 L40.999428,15.1045223 C41.8838604,15.1045223 42.6007246,14.3920602 42.6007246,13.5140601 L42.6007246,1.60669142 C42.6007246,0.729502825 41.8846778,0.0178521269 41.0010629,0.0162292063 L41.0010629,0.0162292063 Z" id="Shape"></path>
                        </g>
                    </g>
                </g>
            </g>
        </g>
    </g>
</svg>