<?xml version="1.0" encoding="UTF-8"?>
<svg width="75px" height="61px" viewBox="0 0 75 61" version="1.1" xmlns="http://www.w3.org/2000/svg" xmlns:xlink="http://www.w3.org/1999/xlink" xmlns:sketch="http://www.bohemiancoding.com/sketch/ns">
    <!-- Generator: Sketch 3.5.1 (25234) - http://www.bohemiancoding.com/sketch -->
    <title>twitter</title>
    <desc>Created with Sketch.</desc>
    <defs></defs>
    <g id="Page-1" stroke="none" stroke-width="1" fill="none" fill-rule="evenodd" sketch:type="MSPage">
        <g id="Artboard-1" sketch:type="MSArtboardGroup" transform="translate(-1684.000000, -599.000000)" fill="#FFFFFF">
            <g id="twitter" sketch:type="MSLayerGroup" transform="translate(1684.000000, 599.000000)">
                <g id="Shape" sketch:type="MSShapeGroup">
                    <g id="Page-1">
                        <g id="twitter">
                            <path d="M74.1481951,7.92122829 C71.4191934,9.12709478 68.4910139,9.94489965 65.4144203,10.3100062 C68.5558315,8.43409306 70.960503,5.45863167 72.100202,1.9240329 C69.1534859,3.66124906 65.9008549,4.922691 62.4351137,5.6065107 C59.6598309,2.65412521 55.7122588,0.815181818 51.3337405,0.815181818 C42.9336247,0.815181818 36.1226906,7.60710617 36.1226906,15.9791856 C36.1226906,17.1665672 36.2570508,18.3262819 36.5165634,19.4352538 C23.8770145,18.802177 12.6691468,12.7634208 5.16787517,3.58730953 C3.85662163,5.82361741 3.11067429,8.42938123 3.11067429,11.2109326 C3.11067429,16.4735655 5.79799894,21.1170153 9.87532746,23.8336884 C7.3825767,23.7505668 5.03811885,23.0667472 2.985643,21.9301083 L2.985643,22.1195481 C2.985643,29.4658981 8.230536,35.5970787 15.185038,36.9925058 C13.9108577,37.3344156 12.567256,37.5238554 11.1772521,37.5238554 C10.1950538,37.5238554 9.2452037,37.42684 8.31389019,37.2419912 C10.2505425,43.2715654 15.8661678,47.6562269 22.5196013,47.776439 C17.3163854,51.8423874 10.755635,54.2588321 3.62969953,54.2588321 C2.40192135,54.2588321 1.19255862,54.1848927 0.00185365854,54.0509075 C6.73403746,58.3617504 14.7264688,60.8752106 23.3165546,60.8752106 C51.2969096,60.8752106 66.5914349,37.7641588 66.5914349,17.7211136 L66.5404288,15.7574879 C69.5288221,13.6319685 72.1141346,10.9614472 74.1481951,7.92122829 L74.1481951,7.92122829 Z" id="Shape"></path>
                        </g>
                    </g>
                </g>
            </g>
        </g>
    </g>
</svg>