<?xml version="1.0" encoding="UTF-8"?>
<svg width="30px" height="20px" viewBox="0 0 30 20" version="1.1" xmlns="http://www.w3.org/2000/svg" xmlns:xlink="http://www.w3.org/1999/xlink">
    <!-- Generator: Sketch 43.2 (39069) - http://www.bohemiancoding.com/sketch -->
    <title>Shape</title>
    <desc>Created with Sketch.</desc>
    <defs></defs>
    <g id="Page-1" stroke="none" stroke-width="1" fill="none" fill-rule="evenodd">
        <g id="visa-icon" fill-rule="nonzero" fill="#C6C6C6">
            <path d="M27.825,1.5 C28.1976,1.5 28.5,1.81733333 28.5,2.20833333 L28.5,17.7916667 C28.5,18.1826667 28.1976,18.5 27.825,18.5 L2.175,18.5 C1.8024,18.5 1.5,18.1826667 1.5,17.7916667 L1.5,2.20833333 C1.5,1.81733333 1.8024,1.5 2.175,1.5 L27.825,1.5 Z M30,2.5 C30,1.12 28.88,0 27.5,0 L2.5,0 C1.11875,0 0,1.12 0,2.5 L0,17.5 C0,18.88 1.11875,20 2.5,20 L27.5,20 C28.88,20 30,18.88 30,17.5 L30,2.5 Z M13.05875,7.0375 L14.6775,7.0375 L13.665,12.97875 L12.04625,12.97875 L13.05875,7.0375 Z M17.9425,9.4225 C17.37625,9.1475 17.03,8.96375 17.03375,8.68625 C17.03375,8.43875 17.3275,8.175 17.96125,8.175 C18.49125,8.16625 18.87375,8.2825 19.17375,8.4025 L19.31875,8.47125 L19.53875,7.18375 C19.2175,7.06375 18.715,6.93375 18.0875,6.93375 C16.4875,6.93375 15.36,7.74 15.35125,8.89375 C15.3425,9.7475 16.15625,10.22375 16.77,10.5075 C17.4,10.79875 17.6125,10.98375 17.60875,11.245 C17.605,11.6425 17.105,11.825 16.64,11.825 C15.9925,11.825 15.6475,11.735 15.11625,11.51375 L14.9075,11.41875 L14.68,12.74875 C15.05875,12.915 15.7575,13.05875 16.48375,13.06625 C18.18625,13.06625 19.29125,12.27 19.30375,11.03625 C19.3075,10.36 18.87625,9.84625 17.9425,9.4225 L17.9425,9.4225 Z M25,12.98 L23.4975,12.98 L23.3,12.09 L21.22625,12.0875 L20.885,12.98 L19.185,12.98 L21.59,7.53625 C21.76,7.15 22.05,7.04375 22.4375,7.04375 L23.68875,7.04375 L25,12.98 L25,12.98 Z M23.03625,10.8725 L22.66125,9.1575 L22.55125,8.645 L22.33625,9.2125 L21.69125,10.8725 L23.03625,10.8725 L23.03625,10.8725 Z M10.6875,7.04125 L9.1025,11.0925 L8.93375,10.26875 L8.36625,7.53875 C8.2675,7.16375 7.98375,7.05125 7.63125,7.0375 L5.02,7.0375 L5,7.16125 C5.635,7.315 6.2025,7.53625 6.70125,7.8125 L8.14125,12.9725 L9.855,12.97 L12.40375,7.04125 L10.6875,7.04125 L10.6875,7.04125 Z" id="Shape"></path>
        </g>
    </g>
</svg>