<?xml version="1.0" encoding="UTF-8"?>
<svg width="72px" height="69px" viewBox="0 0 72 69" version="1.1" xmlns="http://www.w3.org/2000/svg" xmlns:xlink="http://www.w3.org/1999/xlink" xmlns:sketch="http://www.bohemiancoding.com/sketch/ns">
    <!-- Generator: Sketch 3.5.1 (25234) - http://www.bohemiancoding.com/sketch -->
    <title>add-money-request</title>
    <desc>Created with Sketch.</desc>
    <defs></defs>
    <g id="Page-1" stroke="none" stroke-width="1" fill="none" fill-rule="evenodd" sketch:type="MSPage">
        <g id="Artboard-1" sketch:type="MSArtboardGroup" transform="translate(-1514.000000, -222.000000)">
            <g id="add-money-request" sketch:type="MSLayerGroup" transform="translate(1515.000000, 223.000000)">
                <g id="Group" sketch:type="MSShapeGroup">
                    <path d="M69.2900833,33.5 C69.2900833,52.0018529 53.7805278,67 34.6460278,67 C15.5115278,67 0,52.0018529 0,33.5 C0,14.9981471 15.5115278,0 34.6460278,0 C53.7805278,0 69.2900833,14.9981471 69.2900833,33.5 L69.2900833,33.5 Z" id="Shape" stroke="#4DB7C3" stroke-width="2"></path>
                    <path d="M51.2186111,5.58070588 C51.3566667,5.5275 51.4690833,5.44670588 51.5854444,5.36591176 C46.4547238,2.03457511 40.4670873,0.261676929 34.3482222,0.262088235 C27.3981111,0.262088235 20.9568333,2.52432353 15.6456389,6.37879412 C15.6752222,6.51279412 15.7146667,6.65073529 15.7698889,6.77685294 C18.0103333,11.8314118 20.8976667,20.4074118 25.8223056,22.3799706 C28.2126389,23.3396471 30.4254722,22.981 32.6994444,24.1436471 C32.9380833,24.2658235 33.2970278,24.5535294 33.4469167,24.7880294 C34.5986944,26.5517059 33.9340556,29.1371176 35.0779444,29.7677059 C35.9851667,30.2721765 36.5018889,31.2909706 36.1133611,32.2861176 C34.5355833,36.3356765 35.9043056,40.9645882 39.5726389,44.1451176 C42.15625,46.3856765 40.0025833,51.5702941 37.8331389,55.6435 C37.0541111,57.0958235 38.4445278,58.7806765 39.9434167,58.2190588 C42.3179722,57.3362353 44.2823056,56.0553529 46.5602222,54.0059412 C49.8617222,51.0362647 50.5756667,47.8045 53.8475833,45.2880588 C53.8820655,45.2570806 53.9090425,45.2186703 53.9264722,45.1757353 C54.7607222,42.6139706 57.3581389,37.0175 54.7390278,35.5907941 C52.2855833,34.2626176 51.3724444,30.4101176 48.9821111,27.7872647 C48.7138889,27.4877353 48.3174722,27.3379706 47.925,27.2847647 C45.0001944,26.8867059 43.6847222,24.5594412 41.7125,26.1102941 C40.2353056,27.2670294 38.5766667,26.5615588 38.0599444,24.7111765 C37.8942778,24.1022647 37.5945,23.5642941 36.5334444,23.2233824 C35.7327222,22.9612941 35.3382778,22.0095 35.6262222,21.1798824 C35.6321389,21.1621471 35.6360833,21.1522941 35.6360833,21.1404706 C36.0305278,20.0369412 33.8413611,20.2024706 32.7290278,20.3995294 C32.4174167,20.4527353 33.4725556,19.1324412 33.1274167,19.3452647 C31.7586944,20.1906471 30.0606111,18.7343824 30.1335833,17.0731765 C30.2045833,15.3883235 30.5083056,15.4691176 33.2635,15.1400294 C36.2336667,13.6936176 37.6753611,14.7459118 37.5787222,18.2988824 C39.4168333,18.5826471 40.0578056,17.7392353 39.5055833,15.7528824 C39.3490777,15.1672658 39.4673499,14.5423197 39.8270556,14.0542353 C43.2133611,9.44502941 46.0395556,7.437 51.2186111,5.58070588" id="Shape" fill="#4DB7C3"></path>
                </g>
            </g>
        </g>
    </g>
</svg>