<?xml version="1.0" encoding="UTF-8"?>
<svg width="62px" height="77px" viewBox="0 0 62 77" version="1.1" xmlns="http://www.w3.org/2000/svg" xmlns:xlink="http://www.w3.org/1999/xlink" xmlns:sketch="http://www.bohemiancoding.com/sketch/ns">
    <!-- Generator: Sketch 3.5.1 (25234) - http://www.bohemiancoding.com/sketch -->
    <title>delete</title>
    <desc>Created with Sketch.</desc>
    <defs></defs>
    <g id="Page-1" stroke="none" stroke-width="1" fill="none" fill-rule="evenodd" sketch:type="MSPage">
        <g id="Artboard-1" sketch:type="MSArtboardGroup" transform="translate(-603.000000, -616.000000)" stroke-width="1.2" stroke="#545454" fill="#545454">
            <g id="delete" sketch:type="MSLayerGroup" transform="translate(603.000000, 616.000000)">
                <g id="Asset-6" sketch:type="MSShapeGroup">
                    <g id="Layer_2">
                        <g id="Layer_1-2">
                            <path d="M30.9822857,65.3425581 C31.3111542,65.3425581 31.626553,65.2104946 31.8590981,64.9754199 C32.0916432,64.7403452 32.2222857,64.4215156 32.2222857,64.0890698 L32.2222857,22.4911628 C32.2222857,21.7939354 31.6631533,21.2287209 30.9734286,21.2287209 C30.2837038,21.2287209 29.7245714,21.7939354 29.7245714,22.4911628 L29.7245714,64.0711628 C29.7197502,64.4098284 29.8507103,64.7360522 30.0876306,64.9755497 C30.324551,65.2150472 30.6472644,65.3474318 30.9822857,65.3425581 L30.9822857,65.3425581 Z" id="Shape"></path>
                            <path d="M18.5114286,65.3425581 C18.840297,65.3425581 19.1556959,65.2104946 19.388241,64.9754199 C19.6207861,64.7403452 19.7514286,64.4215156 19.7514286,64.0890698 L19.7514286,22.4911628 C19.7514286,21.7939354 19.1922962,21.2287209 18.5025714,21.2287209 C17.8128467,21.2287209 17.2537143,21.7939354 17.2537143,22.4911628 L17.2537143,64.0711628 C17.2488931,64.4098284 17.3798531,64.7360522 17.6167735,64.9755497 C17.8536939,65.2150472 18.1764073,65.3474318 18.5114286,65.3425581 L18.5114286,65.3425581 Z" id="Shape"></path>
                            <path d="M43.4531429,65.3425581 C43.7820113,65.3425581 44.0974102,65.2104946 44.3299553,64.9754199 C44.5625004,64.7403452 44.6931429,64.4215156 44.6931429,64.0890698 L44.6931429,22.4911628 C44.6931429,21.7939354 44.1340105,21.2287209 43.4442857,21.2287209 C42.754561,21.2287209 42.1954286,21.7939354 42.1954286,22.4911628 L42.1954286,64.0711628 C42.1906074,64.4098284 42.3215674,64.7360522 42.5584878,64.9755497 C42.7954081,65.2150472 43.1181216,65.3474318 43.4531429,65.3425581 L43.4531429,65.3425581 Z" id="Shape"></path>
                            <path d="M59.644,8.63116279 L42.1422857,8.63116279 C42.0472259,6.45270013 41.2510666,4.36519903 39.8748571,2.68604651 C38.8464844,1.6247465 37.4292603,1.04131832 35.96,1.0744186 L23.56,1.0744186 C22.088099,1.04600222 20.6704858,1.63607488 19.6451429,2.70395349 C18.2533378,4.37127364 17.4384792,6.45258728 17.3245714,8.63116279 L2.30285714,8.63116279 C1.61313239,8.63116279 1.054,9.19637726 1.054,9.89360465 C1.054,10.590832 1.61313239,11.1560465 2.30285714,11.1560465 L4.85371429,11.1560465 L7.24514286,69.1388372 C7.20167404,70.7985659 7.82865335,72.4046305 8.98165169,73.5870627 C10.13465,74.769495 11.714247,75.4263364 13.3565714,75.4062791 L48.608,75.4062791 C50.2471723,75.4261764 51.8239529,74.7717703 52.9764062,73.5932738 C54.1288595,72.4147773 54.7580052,70.8134075 54.7194286,69.1567442 L57.1108571,11.1381395 L59.6617143,11.1381395 C60.351439,11.1381395 60.9105714,10.572925 60.9105714,9.87569767 C60.9105714,9.1784703 60.351439,8.61325583 59.6617143,8.61325581 L59.644,8.63116279 Z M21.3634286,4.45883721 C21.9220104,3.87161485 22.7014707,3.5525321 23.5068571,3.58139535 L35.9068571,3.58139535 C36.7034699,3.5529928 37.4750911,3.86499866 38.0325714,4.44093023 C38.960572,5.64409565 39.4987624,7.10738829 39.5737143,8.63116279 L19.8222857,8.63116279 C19.9019577,7.11382317 20.4398334,5.65763617 21.3634286,4.45883721 L21.3634286,4.45883721 Z M52.2217143,69.1030233 C52.2854764,70.0925177 51.9405551,71.06445 51.2691045,71.7873235 C50.5976539,72.510197 49.6597763,72.9193064 48.6788571,72.9172093 L13.3565714,72.9172093 C12.3838713,72.8845211 11.4639268,72.4622768 10.7993957,71.7434939 C10.1348646,71.024711 9.78026552,70.0683592 9.81371429,69.0851163 L7.35142857,11.1560465 L54.6131429,11.1560465 L52.2217143,69.1030233 Z" id="Shape"></path>
                        </g>
                    </g>
                </g>
            </g>
        </g>
    </g>
</svg>