<?xml version="1.0" encoding="UTF-8"?>
<svg width="73px" height="72px" viewBox="0 0 73 72" version="1.1" xmlns="http://www.w3.org/2000/svg" xmlns:xlink="http://www.w3.org/1999/xlink" xmlns:sketch="http://www.bohemiancoding.com/sketch/ns">
    <!-- Generator: Sketch 3.5.1 (25234) - http://www.bohemiancoding.com/sketch -->
    <title>edit-tool</title>
    <desc>Created with Sketch.</desc>
    <defs></defs>
    <g id="Page-1" stroke="none" stroke-width="1" fill="none" fill-rule="evenodd" sketch:type="MSPage">
        <g id="Artboard-1" sketch:type="MSArtboardGroup" transform="translate(-688.000000, -616.000000)" fill="#545454">
            <g id="edit-tool" sketch:type="MSLayerGroup" transform="translate(687.000000, 616.000000)">
                <g id="Asset-5" sketch:type="MSShapeGroup">
                    <g id="Layer_2">
                        <g id="Layer_1-2">
                            <path d="M72.5406977,18.7192857 L63.5232558,9.75071429 L63.5232558,9.75071429 L54.505814,0.764761905 C53.4923535,-0.238313661 51.8564837,-0.238313661 50.8430233,0.764761905 L7.23837209,44.2171429 C6.88373301,44.5749454 6.64130893,45.0279033 6.54069767,45.5207143 L1.74418605,68.2028571 C1.56127789,69.0671101 1.8330014,69.9646633 2.46502594,70.5839252 C3.09705049,71.2031871 4.00221255,71.4587542 4.86627907,71.2619048 L27.5406977,66.5864286 C28.0352356,66.4861687 28.4897808,66.2445911 28.8488372,65.8911905 L72.4534884,22.4388095 C72.970235,21.9628707 73.2712253,21.2984642 73.2876614,20.5974543 C73.3040975,19.8964445 73.0345745,19.2187548 72.5406977,18.7192857 L72.5406977,18.7192857 Z M10.5872093,51.2911905 L21.8197674,62.4845238 L7.6744186,65.4045238 L10.5872093,51.2911905 Z M27.0523256,60.3988095 L12.6976744,46.0769048 L52.6744186,6.2397619 L58.0290698,11.5757143 L33.8372093,35.6830952 C32.9631709,36.7112404 33.0263524,38.2354976 33.9825028,39.1883091 C34.9386533,40.1411206 36.4682519,40.2040814 37.5,39.3330952 L61.6918605,15.2257143 L67.0465116,20.5616667 L27.0523256,60.3988095 Z" id="Shape"></path>
                        </g>
                    </g>
                </g>
            </g>
        </g>
    </g>
</svg>