<?xml version="1.0" encoding="UTF-8"?>
<svg width="68px" height="55px" viewBox="0 0 68 55" version="1.1" xmlns="http://www.w3.org/2000/svg" xmlns:xlink="http://www.w3.org/1999/xlink" xmlns:sketch="http://www.bohemiancoding.com/sketch/ns">
    <!-- Generator: Sketch 3.5.1 (25234) - http://www.bohemiancoding.com/sketch -->
    <title>img-placeholder</title>
    <desc>Created with Sketch.</desc>
    <defs></defs>
    <g id="Page-1" stroke="none" stroke-width="1" fill="none" fill-rule="evenodd" sketch:type="MSPage">
        <g id="Artboard-1" sketch:type="MSArtboardGroup" transform="translate(-35.000000, -158.000000)" fill="#CBC7C9">
            <g id="img-placeholder" sketch:type="MSLayerGroup" transform="translate(35.000000, 158.000000)">
                <g id="Capa_1" sketch:type="MSShapeGroup">
                    <path d="M0,0 L0,55 L68,55 L68,0 L0,0 L0,0 Z M63.75,50.7692308 L4.25,50.7692308 L4.25,4.23076923 L63.75,4.23076923 L63.75,50.7692308 L63.75,50.7692308 Z M46.75,14.8076923 C46.75,18.3126202 49.6041406,21.1538462 53.125,21.1538462 C56.6458594,21.1538462 59.5,18.3126202 59.5,14.8076923 C59.5,11.3027644 56.6458594,8.46153846 53.125,8.46153846 C49.6041406,8.46153846 46.75,11.3027644 46.75,14.8076923 L46.75,14.8076923 Z M59.5,46.5384615 L8.5,46.5384615 L21.25,12.6923077 L38.25,33.8461538 L46.75,27.5 L59.5,46.5384615 L59.5,46.5384615 Z" id="Shape"></path>
                </g>
            </g>
        </g>
    </g>
</svg>