<?xml version="1.0" encoding="UTF-8"?>
<svg width="79px" height="79px" viewBox="0 0 79 79" version="1.1" xmlns="http://www.w3.org/2000/svg" xmlns:xlink="http://www.w3.org/1999/xlink" xmlns:sketch="http://www.bohemiancoding.com/sketch/ns">
    <!-- Generator: Sketch 3.5.1 (25234) - http://www.bohemiancoding.com/sketch -->
    <title>rotate</title>
    <desc>Created with Sketch.</desc>
    <defs></defs>
    <g id="Page-1" stroke="none" stroke-width="1" fill="none" fill-rule="evenodd" sketch:type="MSPage">
        <g id="Artboard-1" sketch:type="MSArtboardGroup" transform="translate(-330.000000, -441.000000)" fill="#FFFFFF">
            <g id="rotate" sketch:type="MSLayerGroup" transform="translate(330.000000, 441.000000)">
                <g id="Shape" sketch:type="MSShapeGroup">
                    <g id="Material-Design-Symbols">
                        <g id="Material/Icons-white/refresh">
                            <path d="M39.5,0 C17.775,0 0,17.775 0,39.5 C0,61.225 17.775,79 39.5,79 C57.76875,79 73.075,66.1625 79,49.375 L69.125,49.375 C63.2,60.73125 52.3375,69.125 39.5,69.125 C23.20625,69.125 9.875,55.79375 9.875,39.5 C9.875,23.20625 23.20625,9.875 39.5,9.875 C47.89375,9.875 54.80625,13.33125 59.25,19.75 L44.4375,34.5625 L79,34.5625 L79,0 L69.125,9.875 C60.2375,4.9375 50.3625,0 39.5,0 L39.5,0 Z" id="Shape"></path>
                        </g>
                    </g>
                </g>
            </g>
        </g>
    </g>
</svg>