<?xml version="1.0" encoding="UTF-8"?>
<svg width="96px" height="91px" viewBox="0 0 96 91" version="1.1" xmlns="http://www.w3.org/2000/svg" xmlns:xlink="http://www.w3.org/1999/xlink" xmlns:sketch="http://www.bohemiancoding.com/sketch/ns">
    <!-- Generator: Sketch 3.5.1 (25234) - http://www.bohemiancoding.com/sketch -->
    <title>transactions</title>
    <desc>Created with Sketch.</desc>
    <defs></defs>
    <g id="Page-1" stroke="none" stroke-width="1" fill="none" fill-rule="evenodd" sketch:type="MSPage">
        <g id="Artboard-1" sketch:type="MSArtboardGroup" transform="translate(-1416.000000, -854.000000)" fill="#FFFFFF">
            <g id="transactions" sketch:type="MSLayerGroup" transform="translate(1415.000000, 852.000000)">
                <g id="Page-1" sketch:type="MSShapeGroup">
                    <g>
                        <g id="transactions">
                            <path d="M93.681579,8.93421052 L35.2263158,8.93421052 C33.4394737,8.93421052 31.9078947,10.4657895 31.9078947,12.2526316 L31.9078947,12.2526316 C31.9078947,14.0394737 33.4394737,15.5710526 35.2263158,15.5710526 L93.681579,15.5710526 C95.468421,15.5710526 97,14.0394737 97,12.2526316 L97,12.2526316 C97,10.4657895 95.468421,8.93421052 93.681579,8.93421052 L93.681579,8.93421052 Z" id="Shape"></path>
                            <path d="M93.681579,44.6710528 L35.2263158,44.6710528 C33.4394737,44.6710528 31.9078947,46.2026318 31.9078947,47.9894738 L31.9078947,47.9894738 C31.9078947,49.7763159 33.4394737,51.3078948 35.2263158,51.3078948 L93.681579,51.3078948 C95.468421,51.3078948 97,49.7763159 97,47.9894738 L97,47.9894738 C97,45.9473682 95.468421,44.6710528 93.681579,44.6710528 L93.681579,44.6710528 Z" id="Shape"></path>
                            <path d="M93.681579,80.1526318 L35.2263158,80.1526318 C33.4394737,80.1526318 31.9078947,81.6842107 31.9078947,83.4710528 L31.9078947,83.4710528 C31.9078947,85.2578948 33.4394737,86.7894738 35.2263158,86.7894738 L93.681579,86.7894738 C95.468421,86.7894738 97,85.2578948 97,83.4710528 L97,83.4710528 C97,81.6842107 95.468421,80.1526318 93.681579,80.1526318 L93.681579,80.1526318 Z" id="Shape"></path>
                            <path d="M11.4868421,57.6894738 C5.87105262,57.6894738 1.27631579,53.0947369 1.27631579,47.4789472 C1.27631579,41.8631579 5.87105262,37.2684211 11.4868421,37.2684211 C17.1026316,37.2684211 21.6973684,41.8631579 21.6973684,47.4789472 C21.6973684,53.0947369 17.1026316,57.6894738 11.4868421,57.6894738 L11.4868421,57.6894738 Z M11.4868421,41.8631579 C8.42368421,41.8631579 5.87105262,44.4157893 5.87105262,47.4789472 C5.87105262,50.5421052 8.42368421,53.0947369 11.4868421,53.0947369 C14.55,53.0947369 17.1026316,50.5421052 17.1026316,47.4789472 C17.1026316,44.4157893 14.55,41.8631579 11.4868421,41.8631579 L11.4868421,41.8631579 Z" id="Shape"></path>
                            <path d="M11.4868421,22.4631579 C5.87105262,22.4631579 1.27631579,17.8684211 1.27631579,12.2526316 C1.27631579,6.6368421 5.87105262,2.04210526 11.4868421,2.04210526 C17.1026316,2.04210526 21.6973684,6.6368421 21.6973684,12.2526316 C21.6973684,17.8684211 17.1026316,22.4631579 11.4868421,22.4631579 L11.4868421,22.4631579 Z M11.4868421,6.6368421 C8.42368421,6.6368421 5.87105262,9.18947369 5.87105262,12.2526316 C5.87105262,15.3157895 8.42368421,17.8684211 11.4868421,17.8684211 C14.55,17.8684211 17.1026316,15.3157895 17.1026316,12.2526316 C17.1026316,9.18947369 14.55,6.6368421 11.4868421,6.6368421 L11.4868421,6.6368421 Z" id="Shape"></path>
                            <path d="M11.4868421,92.9157893 C5.87105262,92.9157893 1.27631579,88.3210528 1.27631579,82.7052631 C1.27631579,77.0894738 5.87105262,72.4947369 11.4868421,72.4947369 C17.1026316,72.4947369 21.6973684,77.0894738 21.6973684,82.7052631 C21.6973684,88.3210528 17.1026316,92.9157893 11.4868421,92.9157893 L11.4868421,92.9157893 Z M11.4868421,77.0894738 C8.42368421,77.0894738 5.87105262,79.6421052 5.87105262,82.7052631 C5.87105262,85.768421 8.42368421,88.3210528 11.4868421,88.3210528 C14.55,88.3210528 17.1026316,85.768421 17.1026316,82.7052631 C17.1026316,79.6421052 14.55,77.0894738 11.4868421,77.0894738 L11.4868421,77.0894738 Z" id="Shape"></path>
                        </g>
                    </g>
                </g>
            </g>
        </g>
    </g>
</svg>