<?xml version="1.0" encoding="UTF-8"?>
<svg width="77px" height="63px" viewBox="0 0 77 63" version="1.1" xmlns="http://www.w3.org/2000/svg" xmlns:xlink="http://www.w3.org/1999/xlink" xmlns:sketch="http://www.bohemiancoding.com/sketch/ns">
    <!-- Generator: Sketch 3.5.1 (25234) - http://www.bohemiancoding.com/sketch -->
    <title>twitter-goal</title>
    <desc>Created with Sketch.</desc>
    <defs></defs>
    <g id="Page-1" stroke="none" stroke-width="1" fill="none" fill-rule="evenodd" sketch:type="MSPage">
        <g id="Artboard-1" sketch:type="MSArtboardGroup" transform="translate(-1577.000000, -601.000000)" fill="#545454">
            <g id="twitter-goal" sketch:type="MSLayerGroup" transform="translate(1577.000000, 601.000000)">
                <g id="Shape" sketch:type="MSShapeGroup">
                    <g id="Page-1">
                        <g id="twitter">
                            <path d="M76.0994634,8.1809407 C73.2986459,9.42634379 70.293409,10.2709619 67.1358524,10.6480392 C70.3599323,8.7106207 72.8278847,5.6376032 73.9975757,1.98711595 C70.9733144,3.78129001 67.635088,5.0840907 64.078143,5.79033073 C61.2298265,2.74114571 57.1783709,0.841909091 52.6846284,0.841909091 C44.0634569,0.841909091 37.0732878,7.85651948 37.0732878,16.5030933 C37.0732878,17.7294055 37.2111838,18.9271436 37.4775256,20.0724752 C24.505357,19.4186418 13.0025454,13.1818936 5.30387189,3.70492624 C3.95811167,6.01455569 3.19253414,8.70575439 3.19253414,11.5785042 C3.19253414,17.0136824 5.95057786,21.8093765 10.1352045,24.6151208 C7.57685503,24.5292739 5.17070093,23.823034 3.06421255,22.6491283 L3.06421255,22.8447792 C3.06421255,30.4319931 8.44712905,36.764196 15.5846443,38.2053748 C14.2769329,38.5584948 12.8979733,38.7541457 11.4713903,38.7541457 C10.4633447,38.7541457 9.48849853,38.6539495 8.53267677,38.4630401 C10.5202936,44.6903052 16.2836985,49.2187261 23.1122224,49.3428797 C17.7720797,53.5421378 11.038678,56.0378102 3.72521794,56.0378102 C2.46512981,56.0378102 1.22394174,55.9614466 0.00190243902,55.8230684 C6.91124898,60.2752504 15.1140075,62.8711192 23.9301481,62.8711192 C52.6468283,62.8711192 68.343841,39.0023279 68.343841,18.3021337 L68.2914928,16.2741268 C71.3585279,14.0789182 74.011875,11.3208389 76.0994634,8.1809407 L76.0994634,8.1809407 Z" id="Shape"></path>
                        </g>
                    </g>
                </g>
            </g>
        </g>
    </g>
</svg>