<?xml version="1.0" encoding="UTF-8"?>
<svg width="24px" height="16px" viewBox="0 0 24 16" version="1.1" xmlns="http://www.w3.org/2000/svg" xmlns:xlink="http://www.w3.org/1999/xlink">
    <!-- Generator: Sketch 43.2 (39069) - http://www.bohemiancoding.com/sketch -->
    <title>Shape</title>
    <desc>Created with Sketch.</desc>
    <defs></defs>
    <g id="Page-1" stroke="none" stroke-width="1" fill="none" fill-rule="evenodd">
        <g id="mastercard-icon" fill-rule="nonzero" fill="#C6C6C6">
            <path d="M22.45,1 C22.7536,1 23,1.26506666 23,1.59166666 L23,14.6083332 C23,14.9349331 22.7536,15.1999998 22.45,15.1999998 L1.55,15.1999998 C1.2464,15.1999998 1,14.9349331 1,14.6083332 L1,1.59166666 C1,1.26506666 1.2464,1 1.55,1 L22.45,1 Z M24,2 C24,0.896 23.104,0 22,0 L2,0 C0.895,0 0,0.896 0,2 L0,14 C0,15.104 0.895,16 2,16 L22,16 C23.104,16 24,15.104 24,14 L24,2 Z M17.164,7.188 C17.164,8.949 15.737,10.376 13.976,10.376 C12.215,10.376 10.788,8.949 10.788,7.188 C10.788,5.427 12.216,4 13.977,4 C15.738,4 17.164,5.427 17.164,7.188 Z M10.434,7.188 C10.434,6.101 10.927,5.127 11.7,4.477 C11.213,4.175 10.639,4 10.023,4 C8.262,4 6.835,5.427 6.835,7.188 C6.835,8.949 8.262,10.376 10.023,10.376 C10.638,10.376 11.213,10.201 11.7,9.899 C10.927,9.249 10.434,8.275 10.434,7.188 Z M8.712,11.979 L8.712,11.448 C8.712,11.248 8.585,11.113 8.379,11.112 C8.271,11.11 8.159,11.144 8.082,11.263 C8.024,11.169 7.931,11.112 7.802,11.112 C7.712,11.112 7.623,11.139 7.554,11.238 L7.554,11.134 L7.37,11.134 L7.37,11.98 L7.556,11.98 L7.556,11.511 C7.556,11.364 7.637,11.286 7.763,11.286 C7.885,11.286 7.947,11.366 7.947,11.509 L7.947,11.98 L8.133,11.98 L8.133,11.511 C8.133,11.364 8.218,11.286 8.34,11.286 C8.466,11.286 8.526,11.366 8.526,11.509 L8.526,11.98 L8.712,11.98 L8.712,11.979 Z M11.464,11.132 L11.163,11.132 L11.163,10.875 L10.977,10.875 L10.977,11.132 L10.805,11.132 L10.805,11.3 L10.977,11.3 L10.977,11.686 C10.977,11.883 11.053,11.999 11.271,11.999 C11.351,11.999 11.443,11.974 11.501,11.933 L11.448,11.775 L11.285,11.823 C11.193,11.823 11.163,11.766 11.163,11.681 L11.163,11.299 L11.464,11.299 L11.464,11.132 Z M13.034,11.111 C12.928,11.111 12.859,11.161 12.811,11.235 L12.811,11.132 L12.629,11.132 L12.629,11.978 L12.813,11.978 L12.813,11.503 C12.813,11.363 12.873,11.285 12.994,11.285 L13.109,11.306 L13.166,11.132 L13.034,11.111 L13.034,11.111 Z M10.66,11.2 C10.571,11.142 10.449,11.111 10.315,11.111 C10.101,11.111 9.963,11.214 9.963,11.382 C9.963,11.52 10.066,11.605 10.255,11.632 L10.342,11.644 C10.443,11.658 10.491,11.685 10.491,11.733 C10.491,11.799 10.424,11.836 10.298,11.836 C10.171,11.836 10.078,11.795 10.016,11.747 L9.928,11.89 C10.029,11.964 10.156,12 10.295,12 C10.539,12 10.681,11.885 10.681,11.724 C10.681,11.575 10.569,11.497 10.385,11.471 L10.298,11.459 C10.218,11.448 10.155,11.432 10.155,11.376 C10.155,11.314 10.215,11.277 10.316,11.277 C10.424,11.277 10.528,11.318 10.58,11.35 L10.66,11.2 L10.66,11.2 Z M15.593,11.111 C15.487,11.111 15.418,11.161 15.37,11.235 L15.37,11.132 L15.188,11.132 L15.188,11.978 L15.372,11.978 L15.372,11.503 C15.372,11.363 15.432,11.285 15.553,11.285 L15.668,11.306 L15.725,11.132 L15.593,11.111 L15.593,11.111 Z M13.22,11.556 C13.22,11.813 13.399,12 13.672,12 C13.799,12 13.884,11.972 13.977,11.899 L13.888,11.75 C13.819,11.8 13.746,11.826 13.667,11.826 C13.52,11.824 13.412,11.718 13.412,11.555 C13.412,11.392 13.52,11.286 13.667,11.284 C13.747,11.284 13.819,11.311 13.888,11.36 L13.977,11.211 C13.885,11.138 13.8,11.11 13.672,11.11 C13.399,11.111 13.22,11.299 13.22,11.556 Z M14.945,11.556 L14.945,11.133 L14.761,11.133 L14.761,11.236 C14.703,11.16 14.614,11.112 14.494,11.112 C14.257,11.112 14.071,11.298 14.071,11.556 C14.071,11.815 14.257,12 14.494,12 C14.614,12 14.703,11.952 14.761,11.876 L14.761,11.979 L14.945,11.979 L14.945,11.556 Z M14.26,11.556 C14.26,11.407 14.357,11.285 14.517,11.285 C14.669,11.285 14.772,11.402 14.772,11.556 C14.772,11.71 14.669,11.827 14.517,11.827 C14.357,11.826 14.26,11.704 14.26,11.556 Z M12.038,11.111 C11.79,11.111 11.617,11.292 11.617,11.555 C11.617,11.824 11.798,11.999 12.051,11.999 C12.178,11.999 12.295,11.967 12.398,11.88 L12.308,11.744 C12.237,11.801 12.147,11.833 12.062,11.833 C11.943,11.833 11.835,11.778 11.809,11.626 L12.438,11.626 L12.442,11.555 C12.438,11.292 12.275,11.111 12.038,11.111 L12.038,11.111 Z M12.034,11.276 C12.153,11.276 12.229,11.35 12.248,11.481 L11.809,11.481 C11.829,11.359 11.903,11.276 12.034,11.276 Z M16.654,11.556 L16.654,10.793 L16.47,10.793 L16.47,11.236 C16.412,11.16 16.323,11.112 16.203,11.112 C15.966,11.112 15.78,11.298 15.78,11.556 C15.78,11.815 15.966,12 16.203,12 C16.323,12 16.412,11.952 16.47,11.876 L16.47,11.979 L16.654,11.979 L16.654,11.556 Z M15.969,11.556 C15.969,11.407 16.066,11.285 16.226,11.285 C16.378,11.285 16.481,11.402 16.481,11.556 C16.481,11.71 16.378,11.827 16.226,11.827 C16.066,11.826 15.969,11.704 15.969,11.556 Z M9.75,11.556 L9.75,11.133 L9.565,11.133 L9.565,11.236 C9.507,11.16 9.418,11.112 9.298,11.112 C9.061,11.112 8.875,11.298 8.875,11.556 C8.875,11.814 9.061,12 9.298,12 C9.418,12 9.507,11.952 9.565,11.876 L9.565,11.979 L9.75,11.979 L9.75,11.556 Z M9.064,11.556 C9.064,11.407 9.161,11.285 9.321,11.285 C9.473,11.285 9.576,11.402 9.576,11.556 C9.576,11.71 9.473,11.827 9.321,11.827 C9.162,11.826 9.064,11.704 9.064,11.556 Z" id="Shape"></path>
        </g>
    </g>
</svg>