<?xml version="1.0" encoding="UTF-8"?>
<svg width="32px" height="40px" viewBox="0 0 32 40" version="1.1" xmlns="http://www.w3.org/2000/svg" xmlns:xlink="http://www.w3.org/1999/xlink">
    <!-- Generator: Sketch 42 (36781) - http://www.bohemiancoding.com/sketch -->
    <title>Shape</title>
    <desc>Created with Sketch.</desc>
    <defs></defs>
    <g id="Page-1" stroke="none" stroke-width="1" fill="none" fill-rule="evenodd">
        <g id="anchor" fill="#4DB7C3" fill-rule="nonzero">
            <g id="Page-1">
                <g id="anchor">
                    <g id="Shape">
                        <path d="M32,22.2 L32,21.7 L31.5,21.7 L30.6,21.7 L30.1,21.7 L30.1,22.2 C30.1,23.1 29.9,23.8 29.4,24.2 C28.9,24.7 28.1,24.7 27.8,24.7 L27.6,24.7 L27.1,24.7 L27,25.2 L27,25.7 L27,26.1 L26.9,26.6 L27.4,26.7 L27.8,26.7 C28.2,26.7 28.9,26.6 29.6,26.3 C29.3,27.8 28.7,29.4 27.6,30.6 C26.7,31.5 25.6,32 24.2,32 C20.4,32 18.1,33.7 16.9,35.4 L16.9,16.3 L26.1,16.3 L26.1,16.7 L26.1,17.2 L26.6,17.2 L27.5,17.2 L28,17.2 L28,16.7 L28,14 L28,13.5 L27.5,13.5 L26.6,13.5 L26.1,13.5 L26.1,14 L26.1,14.4 L16.9,14.4 L16.9,9 C18.7,8.5 20,6.9 20,5 C20,2.8 18.2,0.9 15.9,0.9 C13.7,0.9 11.8,2.7 11.8,5 C11.8,6.9 13.1,8.5 14.9,8.9 L14.9,14.3 L5.7,14.3 L5.7,13.9 L5.7,13.4 L5.2,13.4 L4.3,13.4 L3.8,13.4 L3.8,13.9 L3.8,16.6 L3.8,17.1 L4.3,17.1 L5.2,17.1 L5.7,17.1 L5.7,16.6 L5.7,16.2 L15,16.2 L15,35.1 C13.7,33.4 11.4,31.9 7.8,31.9 C6.5,31.9 5.3,31.4 4.4,30.5 C3.3,29.4 2.7,27.7 2.4,26.2 C3.1,26.5 3.8,26.6 4.2,26.6 L4.6,26.6 L5.1,26.5 L5,26.1 L4.9,25.2 L4.8,24.7 L4.3,24.7 L4.1,24.7 C3.8,24.7 3.1,24.6 2.6,24.2 C2.1,23.8 1.9,23.1 1.9,22.2 L1.9,21.7 L1.4,21.7 L0.5,21.7 L1.77635684e-15,21.7 L1.77635684e-15,22.2 C1.77635684e-15,22.3 1.77635684e-15,23.8 0.3,25.8 C0.8,28.5 1.7,30.5 3,31.9 C4.3,33.2 5.8,33.8 7.7,33.8 C13.9,33.8 14.9,39.1 14.9,39.4 L15,39.9 L15.5,39.8 L15.9,39.7 L16,39.7 L16.4,39.8 L16.9,39.9 L17,39.4 C17,39.4 17.3,38 18.3,36.6 C19.6,34.8 21.6,33.8 24.3,33.8 C26.2,33.8 27.8,33.1 29,31.9 C30.3,30.5 31.3,28.5 31.7,25.8 C32,23.8 32,22.3 32,22.2 Z M18.1,5 C18.1,6.2 17.1,7.2 15.9,7.2 C14.7,7.2 13.7,6.2 13.7,5 C13.7,3.8 14.7,2.8 15.9,2.8 C17.1,2.8 18.1,3.8 18.1,5 Z"></path>
                    </g>
                </g>
            </g>
        </g>
    </g>
</svg>