<?xml version="1.0" encoding="UTF-8"?>
<svg width="64px" height="69px" viewBox="0 0 64 69" version="1.1" xmlns="http://www.w3.org/2000/svg" xmlns:xlink="http://www.w3.org/1999/xlink" xmlns:sketch="http://www.bohemiancoding.com/sketch/ns">
    <!-- Generator: Sketch 3.5.1 (25234) - http://www.bohemiancoding.com/sketch -->
    <title>bank_transfer_speed_icon</title>
    <desc>Created with Sketch.</desc>
    <defs></defs>
    <g id="Page-1" stroke="none" stroke-width="1" fill="none" fill-rule="evenodd" sketch:type="MSPage">
        <g id="Artboard-1" sketch:type="MSArtboardGroup" transform="translate(-1419.000000, -232.000000)" fill="#C6C6C6">
            <g id="bank_transfer_speed_icon" sketch:type="MSLayerGroup" transform="translate(1418.000000, 232.000000)">
                <g id="Asset-5" sketch:type="MSShapeGroup">
                    <g id="Page-1">
                        <g id="add_money_hidden_fp">
                            <g id="Asset-5" transform="translate(0.990000, 0.000000)">
                                <path d="M52.0271999,13.0617482 C63.0790235,22.3943601 66.377313,38.099295 60.0213636,51.1262695 C53.6654139,64.1532436 39.2928711,71.1457843 25.1862013,68.0742994 C11.0795314,65.0028146 0.873397029,52.6586894 0.449287854,38.1554738 C0.0251786755,23.6522583 9.49236882,10.7267871 23.3952,6.82762237 L22.8144,0 L36.6863999,6.64909092 L24.1392,15.5756643 L23.7312,10.7987413 C11.73754,14.5312432 3.78757093,25.9629894 4.41958392,38.568094 C5.05159689,51.1731987 14.104734,61.7434526 26.4109539,64.2447581 C38.7171734,66.7460638 51.1443377,60.5417974 56.5983201,49.173704 C62.0523024,37.8056109 59.1449731,24.1670602 49.5360001,16.0437063 L52.032,13.0665734 L52.0271999,13.0617482 L52.0271999,13.0617482 Z" id="Shape"></path>
                                <path d="M25.0608,45.9163637 L25.0608,48.3289511 L12.5808,48.3289511 L12.5808,45.9163637 L17.472,45.9163637 L17.472,30.7074126 C17.472,30.2216784 17.488,29.7198602 17.52,29.2019581 L13.5984,32.5458043 C13.467237,32.6550982 13.3128768,32.7326831 13.1472,32.7725874 C13.0060349,32.7992482 12.8611651,32.7992482 12.72,32.7725874 C12.5926218,32.7534521 12.4711951,32.7056165 12.3648,32.6326572 C12.2724713,32.5716177 12.1885486,32.4986115 12.1152,32.4155246 L11.1552,31.0403496 L18.048,25.0667832 L20.6064,25.0667832 L20.6064,45.9163637 L25.0608,45.9163637 L25.0608,45.9163637 Z" id="Shape"></path>
                                <path d="M31.7424001,36.3432169 C32.3028093,35.7701711 32.9510465,35.2912177 33.6624,34.9246154 C34.4073748,34.5526502 35.2307625,34.367244 36.0624,34.3841957 C36.7420728,34.3693798 37.417319,34.4975768 38.0448,34.7605594 C38.5992787,34.998982 39.0919251,35.3621508 39.4847999,35.8220979 C39.8703632,36.3067661 40.1544557,36.8648006 40.3200001,37.4626572 C40.5247759,38.1512937 40.6251033,38.8670291 40.6175999,39.5857342 L40.6175999,48.3289511 L37.992,48.3289511 L37.992,39.5664335 C38.0425415,38.7468417 37.8046561,37.9354975 37.3199999,37.2744754 C36.7969106,36.6987689 36.038847,36.3978702 35.2656,36.4590209 C34.6063238,36.4568925 33.9572841,36.6229087 33.3792001,36.9415385 C32.7669508,37.2816055 32.2153888,37.7219078 31.7471999,38.2443357 L31.7471999,48.3096504 L29.1216,48.3096504 L29.1216,28.3816784 L31.7424001,28.3816784 L31.7424001,36.3432169 L31.7424001,36.3432169 Z" id="Shape"></path>
                                <path d="M46.6320001,37.2310489 C47.0033298,36.4178929 47.5434152,35.694002 48.2160001,35.107972 C49.0839848,34.4237017 50.2158526,34.1765848 51.2879999,34.4372726 C51.5343563,34.4970548 51.7683244,34.5999529 51.9792,34.7412588 L51.8064001,36.7292308 C51.774596,36.9472572 51.5837932,37.1057035 51.3647999,37.095944 C51.174245,37.0886706 50.9847048,37.0644503 50.7984,37.0235665 C50.5325539,36.9733329 50.2624938,36.949094 49.9919999,36.9511889 C49.6128679,36.9447175 49.2356671,37.0068244 48.8784001,37.1345455 C48.5532065,37.252842 48.2546286,37.4348964 48,37.67014 C47.7315672,37.9268202 47.503377,38.2229088 47.3231999,38.5483216 C47.1102522,38.9280514 46.9257415,39.3232008 46.7711999,39.7304895 L46.7711999,48.3241259 L44.1599999,48.3241259 L44.1599999,34.5965034 L45.6672,34.5965034 C45.8747739,34.5720604 46.0838838,34.6271967 46.2528,34.7509092 C46.3779582,34.9069819 46.4547384,35.096583 46.4736001,35.2961538 L46.6320001,37.2310489 L46.6320001,37.2310489 Z" id="Shape"></path>
                            </g>
                        </g>
                    </g>
                </g>
            </g>
        </g>
    </g>
</svg>