<?xml version="1.0" encoding="UTF-8"?>
<svg width="83px" height="71px" viewBox="0 0 83 71" version="1.1" xmlns="http://www.w3.org/2000/svg" xmlns:xlink="http://www.w3.org/1999/xlink" xmlns:sketch="http://www.bohemiancoding.com/sketch/ns">
    <!-- Generator: Sketch 3.5.1 (25234) - http://www.bohemiancoding.com/sketch -->
    <title>budgeting</title>
    <desc>Created with Sketch.</desc>
    <defs></defs>
    <g id="Page-1" stroke="none" stroke-width="1" fill="none" fill-rule="evenodd" sketch:type="MSPage">
        <g id="Artboard-1" sketch:type="MSArtboardGroup" transform="translate(-1288.000000, -867.000000)" fill="#FFFFFF">
            <g id="budgeting" sketch:type="MSLayerGroup" transform="translate(1287.000000, 866.000000)">
                <g id="Page-1" sketch:type="MSShapeGroup">
                    <g>
                        <g id="budgeting">
                            <path d="M83.4265957,9.05319149 C83.4711098,5.62745302 81.1119622,2.63911158 77.7725088,1.89113767 C74.433055,1.14316373 71.026938,2.84019577 69.6091864,5.95835524 C68.1914348,9.0765147 69.1499317,12.7627032 71.9063831,14.7929149 L60.3861701,45.5737658 C59.6649004,45.3211579 58.9076623,45.1866511 58.1436169,45.1754256 C55.6599905,45.1930073 53.3590198,46.4849807 52.0489362,48.597532 L36.8574468,39.8340424 L36.8574468,39.4538085 C36.8574468,35.4538568 33.6186556,32.2112553 29.6234043,32.2112553 C25.6281529,32.2112553 22.3893617,35.4538568 22.3893617,39.4538085 C22.3968527,40.4938726 22.6314088,41.5197176 23.0765957,42.459468 L11.3031915,57.2885959 C10.5772058,57.0278976 9.81367692,56.8872432 9.04255319,56.8721491 C5.72096318,56.8632387 2.82013376,59.1201455 2.00844388,62.3448353 C1.19675399,65.5695248 2.68280648,68.9332577 5.61191523,70.5014213 C8.54102396,72.0695853 12.1604132,71.4391645 14.3884327,68.9727386 C16.6164521,66.5063123 16.8805046,62.8377482 15.0287234,60.0769788 L26.4404256,45.8091491 C29.3691559,47.3801924 32.9964451,46.685591 35.1393617,44.1433617 L51.0542555,53.3414041 C51.3681062,56.3409249 53.5057091,58.8317719 56.420263,59.594158 C59.3348173,60.3565445 62.4162033,59.230875 64.1554415,56.7683992 C65.8946797,54.3059238 65.9276867,51.0221257 64.238298,48.5251063 L76.3010638,16.2957447 C80.2538753,16.2363761 83.4270406,13.0110985 83.4265957,9.05319149 L83.4265957,9.05319149 L83.4265957,9.05319149 Z M29.6957447,35.3979787 C31.9230973,35.3979787 33.7287234,37.2057289 33.7287234,39.4357022 C33.7287234,41.6656752 31.9230973,43.4734256 29.6957447,43.4734256 C27.468392,43.4734256 25.6627659,41.6656752 25.6627659,39.4357022 C25.6726692,37.2098488 27.4725069,35.4078936 29.6957447,35.3979787 L29.6957447,35.3979787 L29.6957447,35.3979787 Z M9.04255319,68.1343193 C7.40973978,68.1416498 5.933628,67.1625517 5.30369725,65.6543529 C4.6737665,64.1461541 5.01433271,62.4064958 6.16632027,61.2479581 C7.31830786,60.0894197 9.05437366,59.7406377 10.563616,60.3645247 C12.0728584,60.988412 13.0574304,62.4618449 13.0574468,64.0965959 C13.047641,66.3154415 11.258725,68.1145295 9.04255319,68.1343193 L9.04255319,68.1343193 L9.04255319,68.1343193 Z M76.2106382,4.97925532 C78.4332629,4.97934482 80.236852,6.77978635 80.243437,9.0050159 C80.2500222,11.2302455 78.4571206,13.0413551 76.2345358,13.0546303 C74.0119506,13.0679054 72.1975934,11.2783413 72.1776595,9.05319149 C72.1728525,7.97751531 72.5950564,6.94398529 73.3513886,6.17997173 C74.1077212,5.41595814 75.136226,4.9840467 76.2106382,4.97925532 L76.2106382,4.97925532 L76.2106382,4.97925532 Z M58.1255319,56.4194892 C55.8981793,56.4194892 54.0925532,54.6117391 54.0925532,52.3817658 C54.0925532,50.1517928 55.8981793,48.3440424 58.1255319,48.3440424 C60.3528845,48.3440424 62.1585106,50.1517928 62.1585106,52.3817658 C62.1486074,54.6076192 60.3487697,56.4095743 58.1255319,56.4194892 L58.1255319,56.4194892 Z" id="Shape"></path>
                        </g>
                    </g>
                </g>
            </g>
        </g>
    </g>
</svg>