<?xml version="1.0" encoding="UTF-8"?>
<svg width="115px" height="85px" viewBox="0 0 115 85" version="1.1" xmlns="http://www.w3.org/2000/svg" xmlns:xlink="http://www.w3.org/1999/xlink" xmlns:sketch="http://www.bohemiancoding.com/sketch/ns">
    <!-- Generator: Sketch 3.5.1 (25234) - http://www.bohemiancoding.com/sketch -->
    <title>goals-transfer-card</title>
    <desc>Created with Sketch.</desc>
    <defs></defs>
    <g id="Page-1" stroke="none" stroke-width="1" fill="none" fill-rule="evenodd" sketch:type="MSPage">
        <g id="Artboard-1" sketch:type="MSArtboardGroup" transform="translate(-1702.000000, -216.000000)" fill="#4DB7C3">
            <g id="goals-transfer-card" sketch:type="MSLayerGroup" transform="translate(1702.000000, 216.000000)">
                <g id="card" sketch:type="MSShapeGroup">
                    <g id="Page-1">
                        <g id="card">
                            <g id="Layer_2">
                                <g id="card">
                                    <path d="M91.0244898,70.0069444 C85.7946913,70.0069444 81.555102,65.7785226 81.555102,60.5625 C81.555102,55.3464774 85.7946913,51.1180556 91.0244898,51.1180556 C96.2542882,51.1180556 100.493878,55.3464774 100.493878,60.5625 C100.493878,65.7785226 96.2542882,70.0069444 91.0244898,70.0069444 L91.0244898,70.0069444 Z M91.0244898,55.3208333 C88.1088771,55.3208333 85.7453061,57.6781785 85.7453061,60.5861111 C85.7453061,63.4940437 88.1088771,65.8513889 91.0244898,65.8513889 C93.9401024,65.8513889 96.3036735,63.4940437 96.3036735,60.5861111 C96.2777993,57.6927756 93.9255537,55.3572466 91.0244898,55.3444444 L91.0244898,55.3208333 L91.0244898,55.3208333 Z" id="Shape"></path>
                                    <path d="M81.602449,70.0069444 C76.3726505,70.0069444 72.1330612,65.7785226 72.1330612,60.5625 C72.1330612,55.3464774 76.3726505,51.1180556 81.602449,51.1180556 C86.8322474,51.1180556 91.0718367,55.3464774 91.0718367,60.5625 C91.0718367,65.7785226 86.8322474,70.0069444 81.602449,70.0069444 L81.602449,70.0069444 Z M81.602449,55.3208333 C79.4672185,55.3208333 77.5422366,56.6036772 76.7251191,58.5711764 C75.9080019,60.5386759 76.3596663,62.8033659 77.8695025,64.3092247 C79.3793383,65.8150837 81.6500095,66.2655585 83.6227052,65.4505936 C85.5954007,64.6356285 86.8816327,62.7157172 86.8816327,60.5861111 C86.8557585,57.6927756 84.5035129,55.3572466 81.602449,55.3444444 L81.602449,55.3208333 L81.602449,55.3208333 Z" id="Shape"></path>
                                    <path d="M106.246531,0 L8.59346939,0 C3.8474273,-2.89845764e-16 5.81222526e-16,3.83729279 0,8.57083333 L0,75.7444444 C0.0130490699,80.4687617 3.85665702,84.2916846 8.59346939,84.2916667 L106.246531,84.2916667 C110.983343,84.2916846 114.826951,80.4687617 114.84,75.7444444 L114.84,8.57083333 C114.84,3.83729279 110.992573,2.89845764e-16 106.246531,0 L106.246531,0 Z M4.97142857,8.54722222 L4.97142857,8.16944444 C5.16681866,6.32711178 6.73610251,4.93586715 8.59346939,4.95833333 L106.246531,4.95833333 C108.076755,4.97221657 109.604943,6.35412388 109.797551,8.16944444 L109.797551,75.7444444 C109.784639,77.7211742 108.181134,79.3204551 106.199184,79.3333333 L8.59346939,79.3333333 C6.60228019,79.3333758 4.98444287,77.7303462 4.97142857,75.7444444 L4.97142857,8.54722222 L4.97142857,8.54722222 Z" id="Shape"></path>
                                    <rect id="Rectangle-path" x="2.95918367" y="18.0861111" width="109.679184" height="6.04444444"></rect>
                                </g>
                            </g>
                        </g>
                    </g>
                </g>
            </g>
        </g>
    </g>
</svg>