<?xml version="1.0" encoding="UTF-8"?>
<svg width="75px" height="75px" viewBox="0 0 75 75" version="1.1" xmlns="http://www.w3.org/2000/svg" xmlns:xlink="http://www.w3.org/1999/xlink" xmlns:sketch="http://www.bohemiancoding.com/sketch/ns">
    <!-- Generator: Sketch 3.5.1 (25234) - http://www.bohemiancoding.com/sketch -->
    <title>cross</title>
    <desc>Created with Sketch.</desc>
    <defs></defs>
    <g id="Page-1" stroke="none" stroke-width="1" fill="none" fill-rule="evenodd" sketch:type="MSPage">
        <g id="Artboard-1" sketch:type="MSArtboardGroup" transform="translate(-465.000000, -442.000000)" fill="#FFFFFF">
            <g id="cross" sketch:type="MSLayerGroup" transform="translate(465.000000, 441.000000)">
                <path d="M33.9152344,38.3344 L0.718359375,71.4563692 C-0.20390625,72.3765538 -0.20390625,73.8673231 0.718359375,74.7875077 C1.17890625,75.2481846 1.78359375,75.4773538 2.38710938,75.4773538 C2.99179688,75.4773538 3.5953125,75.2481846 4.05585938,74.7875077 L37.5023438,41.4164923 L70.9488281,74.7875077 C71.4105469,75.2481846 72.0140625,75.4773538 72.6175781,75.4773538 C73.2210938,75.4773538 73.8257812,75.2481846 74.2863281,74.7875077 C75.2085938,73.8673231 75.2085938,72.3765538 74.2863281,71.4563692 L41.090625,38.3344 L74.3085937,5.18904615 C75.2308594,4.26886154 75.2308594,2.77809231 74.3085937,1.85790769 C73.3863281,0.938892308 71.8921875,0.938892308 70.9710937,1.85790769 L37.5035156,35.2523077 L4.03242188,1.85907692 C3.11015625,0.940061538 1.6171875,0.940061538 0.694921875,1.85907692 C-0.22734375,2.77926154 -0.22734375,4.27003077 0.694921875,5.19021538 L33.9152344,38.3344 L33.9152344,38.3344 Z" id="Shape" sketch:type="MSShapeGroup"></path>
            </g>
        </g>
    </g>
</svg>