<?xml version="1.0" encoding="UTF-8"?>
<svg width="79px" height="76px" viewBox="0 0 79 76" version="1.1" xmlns="http://www.w3.org/2000/svg" xmlns:xlink="http://www.w3.org/1999/xlink" xmlns:sketch="http://www.bohemiancoding.com/sketch/ns">
    <!-- Generator: Sketch 3.5.1 (25234) - http://www.bohemiancoding.com/sketch -->
    <title>star</title>
    <desc>Created with Sketch.</desc>
    <defs></defs>
    <g id="Page-1" stroke="none" stroke-width="1" fill="none" fill-rule="evenodd" sketch:type="MSPage">
        <g id="Artboard-1" sketch:type="MSArtboardGroup" transform="translate(-122.000000, -900.000000)" fill="#4DB7C3">
            <g id="star" sketch:type="MSLayerGroup" transform="translate(122.000000, 900.000000)">
                <g id="Capa_1" sketch:type="MSShapeGroup">
                    <path d="M78.74325,28.9616296 C78.5767857,28.4521481 78.1352321,28.0805926 77.6033929,28.0031852 L52.0835714,24.3031111 L40.6708929,1.23288889 C40.4338929,0.751555556 39.9429643,0.447555556 39.4068929,0.447555556 C38.8708214,0.447555556 38.3784821,0.751555556 38.1428929,1.23288889 L26.7288036,24.3045185 L1.20898214,28.0045926 C0.677142857,28.082 0.237,28.4521481 0.069125,28.963037 C-0.0959285714,29.4711111 0.0409107143,30.0312593 0.426035714,30.4042222 L18.8936964,48.3627407 L14.5331786,73.7214074 C14.4428929,74.2491852 14.6601429,74.7825926 15.0932321,75.0978519 C15.5291429,75.4159259 16.106125,75.4567407 16.5787143,75.2048148 L39.4068929,63.2334074 L62.23225,75.2048148 C62.4382143,75.3131852 62.6653393,75.3666667 62.8896429,75.3666667 C63.1816607,75.3666667 63.4722679,75.2765926 63.7191429,75.0978519 C64.1536429,74.7825926 64.3708929,74.2491852 64.2791964,73.7214074 L59.9200893,48.3641481 L78.38775,30.4042222 C78.7714643,30.0284444 78.9097143,29.4697037 78.74325,28.9616296 L78.74325,28.9616296 Z" id="Shape"></path>
                </g>
            </g>
        </g>
    </g>
</svg>