<?xml version="1.0" encoding="UTF-8"?>
<svg width="66px" height="60px" viewBox="0 0 66 60" version="1.1" xmlns="http://www.w3.org/2000/svg" xmlns:xlink="http://www.w3.org/1999/xlink" xmlns:sketch="http://www.bohemiancoding.com/sketch/ns">
    <!-- Generator: Sketch 3.5.1 (25234) - http://www.bohemiancoding.com/sketch -->
    <title>goals</title>
    <desc>Created with Sketch.</desc>
    <defs></defs>
    <g id="Page-1" stroke="none" stroke-width="1" fill="none" fill-rule="evenodd" sketch:type="MSPage">
        <g id="Artboard-1" sketch:type="MSArtboardGroup" transform="translate(-1062.000000, -878.000000)" fill="#FFFFFF">
            <g id="goals" sketch:type="MSLayerGroup" transform="translate(1061.000000, 878.000000)">
                <g id="Page-1" sketch:type="MSShapeGroup">
                    <g>
                        <g id="goals">
                            <path d="M64.3243245,54.140283 L3.49189189,54.140283 C2.20540541,54.140283 1.1027027,55.2414414 1.1027027,56.526126 L1.1027027,57.0767052 C1.1027027,58.3613901 2.20540541,59.4625481 3.49189189,59.4625481 L64.3243245,59.4625481 C65.6108108,59.4625481 66.7135136,58.3613901 66.7135136,57.0767052 L66.7135136,56.526126 C66.7135136,55.2414414 65.6108108,54.140283 64.3243245,54.140283 L64.3243245,54.140283 Z" id="Shape"></path>
                            <path d="M24.4432433,15.0491635 C20.4,15.0491635 17.0918919,11.7456886 17.0918919,7.70810811 C17.0918919,3.67052766 20.4,0.367052766 24.4432433,0.367052766 C28.4864865,0.367052766 31.7945947,3.67052766 31.7945947,7.70810811 C31.7945947,11.7456886 28.4864865,15.0491635 24.4432433,15.0491635 L24.4432433,15.0491635 Z M24.4432433,3.48700128 C22.2378378,3.48700128 20.4,5.32226511 20.4,7.52458173 C20.4,9.72689831 22.2378378,11.5621622 24.4432433,11.5621622 C26.6486486,11.5621622 28.4864865,9.72689831 28.4864865,7.52458173 C28.4864865,5.32226511 26.6486486,3.48700128 24.4432433,3.48700128 L24.4432433,3.48700128 Z" id="Shape"></path>
                            <path d="M45.7621622,35.7876447 C41.7189189,35.7876447 38.4108108,32.4841699 38.4108108,28.4465895 C38.4108108,24.409009 41.7189189,21.1055341 45.7621622,21.1055341 C49.8054053,21.1055341 53.1135136,24.409009 53.1135136,28.4465895 C53.1135136,32.4841699 49.8054053,35.7876447 45.7621622,35.7876447 L45.7621622,35.7876447 Z M45.7621622,24.409009 C43.5567567,24.409009 41.7189189,26.2442728 41.7189189,28.4465895 C41.7189189,30.6489061 43.5567567,32.4841699 45.7621622,32.4841699 C47.9675675,32.4841699 49.8054053,30.6489061 49.8054053,28.4465895 C49.8054053,26.2442728 47.9675675,24.409009 45.7621622,24.409009 L45.7621622,24.409009 Z" id="Shape"></path>
                            <path d="M26.0972973,57.9943371 C22.0540541,57.9943371 18.7459459,54.6908622 18.7459459,50.653282 C18.7459459,46.6157014 22.0540541,43.3122266 26.0972973,43.3122266 C30.1405406,43.3122266 33.4486486,46.6157014 33.4486486,50.653282 C33.4486486,54.6908622 30.1405406,57.9943371 26.0972973,57.9943371 L26.0972973,57.9943371 Z M26.0972973,46.6157014 C23.8918919,46.6157014 22.0540541,48.4509652 22.0540541,50.653282 C22.0540541,52.8555984 23.8918919,54.6908622 26.0972973,54.6908622 C28.3027027,54.6908622 30.1405406,52.8555984 30.1405406,50.653282 C30.1405406,48.4509652 28.4864865,46.6157014 26.0972973,46.6157014 L26.0972973,46.6157014 Z" id="Shape"></path>
                        </g>
                    </g>
                </g>
            </g>
        </g>
    </g>
</svg>