<?xml version="1.0" encoding="UTF-8"?>
<svg width="68px" height="76px" viewBox="0 0 68 76" version="1.1" xmlns="http://www.w3.org/2000/svg" xmlns:xlink="http://www.w3.org/1999/xlink" xmlns:sketch="http://www.bohemiancoding.com/sketch/ns">
    <!-- Generator: Sketch 3.5.1 (25234) - http://www.bohemiancoding.com/sketch -->
    <title>log-out</title>
    <desc>Created with Sketch.</desc>
    <defs></defs>
    <g id="Page-1" stroke="none" stroke-width="1" fill="none" fill-rule="evenodd" sketch:type="MSPage">
        <g id="Artboard-1" sketch:type="MSArtboardGroup" transform="translate(-1675.000000, -853.000000)" fill="#FFFFFF">
            <g id="log-out" sketch:type="MSLayerGroup" transform="translate(1674.000000, 852.000000)">
                <g id="Page-1" sketch:type="MSShapeGroup">
                    <g>
                        <g id="log-out">
                            <path d="M45.3727272,36.8000001 L10.8727273,36.8000001 C9.40909092,36.8000001 8.15454546,38.0545455 8.15454546,39.5181819 L8.15454546,39.5181819 C8.15454546,40.9818183 9.40909092,42.2363637 10.8727273,42.2363637 L45.3727272,42.2363637 C46.8363636,42.2363637 48.090909,40.9818183 48.090909,39.5181819 L48.090909,39.5181819 C48.090909,37.8454545 46.8363636,36.8000001 45.3727272,36.8000001 L45.3727272,36.8000001 Z" id="Shape"></path>
                            <path d="M6.48181818,37.4272728 L17.5636364,48.509091 C18.6090909,49.5545454 18.6090909,51.2272728 17.5636364,52.2727272 L17.5636364,52.2727272 C16.5181818,53.3181819 14.8454546,53.3181819 13.8,52.2727272 L2.71818182,41.190909 C1.67272727,40.1454546 1.67272727,38.4727272 2.71818182,37.4272728 L2.71818182,37.4272728 C3.76363635,36.3818181 5.43636363,36.3818181 6.48181818,37.4272728 L6.48181818,37.4272728 Z" id="Shape"></path>
                            <path d="M2.71818182,37.4272728 L13.8,26.3454545 C14.8454546,25.3 16.5181818,25.3 17.5636364,26.3454545 L17.5636364,26.3454545 C18.6090909,27.3909091 18.6090909,29.0636364 17.5636364,30.1090908 L6.48181818,41.190909 C5.43636363,42.2363637 3.76363635,42.2363637 2.71818182,41.190909 L2.71818182,41.190909 C1.67272727,40.1454546 1.67272727,38.4727272 2.71818182,37.4272728 L2.71818182,37.4272728 Z" id="Shape"></path>
                            <path d="M4.18181817,6.9 L64.8181818,6.9 C66.2818182,6.9 67.5363636,5.64545454 67.5363636,4.18181817 L67.5363636,4.18181817 C67.5363636,2.71818182 66.2818182,1.46363636 64.8181818,1.46363636 L4.18181817,1.46363636 C2.71818182,1.46363636 1.46363636,2.71818182 1.46363636,4.18181817 L1.46363636,4.18181817 C1.46363636,5.64545454 2.71818182,6.9 4.18181817,6.9 L4.18181817,6.9 Z" id="Shape"></path>
                            <path d="M4.18181817,76.7363637 L64.8181818,76.7363637 C66.2818182,76.7363637 67.5363636,75.4818183 67.5363636,74.0181819 L67.5363636,74.0181819 C67.5363636,72.5545455 66.2818182,71.3000001 64.8181818,71.3000001 L4.18181817,71.3000001 C2.71818182,71.3000001 1.46363636,72.5545455 1.46363636,74.0181819 L1.46363636,74.0181819 C1.46363636,75.4818183 2.71818182,76.7363637 4.18181817,76.7363637 L4.18181817,76.7363637 Z" id="Shape"></path>
                            <path d="M62.7272727,4.18181817 L62.7272727,74.0181819 C62.7272727,75.4818183 63.9818181,76.7363637 65.4454545,76.7363637 L65.4454545,76.7363637 C66.9090909,76.7363637 68.1636363,75.4818183 68.1636363,74.0181819 L68.1636363,4.18181817 C68.1636363,2.71818182 66.9090909,1.46363636 65.4454545,1.46363636 L65.4454545,1.46363636 C63.9818181,1.46363636 62.7272727,2.71818182 62.7272727,4.18181817 L62.7272727,4.18181817 Z" id="Shape"></path>
                        </g>
                    </g>
                </g>
            </g>
        </g>
    </g>
</svg>