<?xml version="1.0" encoding="UTF-8"?>
<svg width="84px" height="86px" viewBox="0 0 84 86" version="1.1" xmlns="http://www.w3.org/2000/svg" xmlns:xlink="http://www.w3.org/1999/xlink" xmlns:sketch="http://www.bohemiancoding.com/sketch/ns">
    <!-- Generator: Sketch 3.5.1 (25234) - http://www.bohemiancoding.com/sketch -->
    <title>send-money</title>
    <desc>Created with Sketch.</desc>
    <defs></defs>
    <g id="Page-1" stroke="none" stroke-width="1" fill="none" fill-rule="evenodd" sketch:type="MSPage">
        <g id="Artboard-1" sketch:type="MSArtboardGroup" transform="translate(-961.000000, -866.000000)" fill="#FFFFFF">
            <g id="send-money" sketch:type="MSLayerGroup" transform="translate(959.000000, 864.000000)">
                <g id="Page-1" sketch:type="MSShapeGroup">
                    <g>
                        <g id="send-money">
                            <path d="M81.9866668,69.5364005 L12.7088889,69.5364005 L20.2577778,62.0496875 C21.4516064,60.8654387 21.4516064,58.9456608 20.2577778,57.761412 L20.2577778,57.761412 C19.0636941,56.5774164 17.1279725,56.5774164 15.9338889,57.761412 L3.27277778,70.2234723 C2.07894919,71.4077208 2.07894919,73.327499 3.27277778,74.5117478 L3.27277778,74.5117478 L15.8383333,86.9738078 C17.032417,88.1578038 18.9681386,88.1578038 20.1622222,86.9738078 L20.1622222,86.9738078 C21.3560508,85.789559 21.3560508,83.8697812 20.1622222,82.6855323 L12.9955556,75.5778937 L81.9866668,75.5778937 C83.6754308,75.5778937 85.0444443,74.2201557 85.0444443,72.545301 C85.0444443,70.8704463 83.6754308,69.5127083 81.9866668,69.5127083 L81.9866668,69.5364005 L81.9866668,69.5364005 Z" id="Shape"></path>
                            <path d="M84.6144443,15.7315741 L84.6144443,15.7315741 L72.0488889,3.24582176 C70.8548051,2.06182606 68.9190838,2.06182606 67.725,3.24582176 L67.725,3.24582176 C66.5311716,4.43007042 66.5311716,6.34984855 67.725,7.53409723 L74.8916668,14.6417361 L5.90055557,14.6417361 C4.21179156,14.6417362 2.84277787,15.9994741 2.84277787,17.6743287 C2.84277787,19.3491833 4.21179156,20.7069213 5.90055557,20.7069213 L75.1783332,20.7069213 L67.7011111,28.1936343 C66.5072826,29.377883 66.5072826,31.297661 67.7011111,32.4819097 L67.7011111,32.4819097 C68.8951949,33.6659054 70.8309162,33.6659054 72.025,32.4819097 L84.6144443,19.9961574 L84.6144443,19.9961574 C85.7924379,18.8146714 85.7924379,16.9130601 84.6144443,15.7315741 L84.6144443,15.7315741 Z" id="Shape"></path>
                        </g>
                    </g>
                </g>
            </g>
        </g>
    </g>
</svg>